<svg width="512" height="512" viewBox="0 0 512 512" fill="none" xmlns="http://www.w3.org/2000/svg">
<path d="M376 352C376 354.122 375.157 356.157 373.657 357.657C372.157 359.157 370.122 360 368 360H240C237.878 360 235.843 359.157 234.343 357.657C232.843 356.157 232 354.122 232 352V312H104V480C104 486.365 106.529 492.47 111.029 496.971C115.53 501.471 121.635 504 128 504H480C486.365 504 492.47 501.471 496.971 496.971C501.471 492.47 504 486.365 504 480V312H376V352ZM472 464C472 466.122 471.157 468.157 469.657 469.657C468.157 471.157 466.122 472 464 472H144C141.878 472 139.843 471.157 138.343 469.657C136.843 468.157 136 466.122 136 464C136 461.878 136.843 459.843 138.343 458.343C139.843 456.843 141.878 456 144 456H464C466.122 456 468.157 456.843 469.657 458.343C471.157 459.843 472 461.878 472 464Z" fill="#F5F5F5" fill-opacity="0.6"/>
<path d="M360 312H248V344H360V312Z" fill="#F5F5F5" fill-opacity="0.6"/>
<path d="M480 200H388.944L359.2 140.424C358.532 139.088 357.504 137.966 356.232 137.184C354.959 136.402 353.493 135.992 352 136H256C254.513 135.999 253.056 136.413 251.791 137.194C250.526 137.976 249.505 139.094 248.84 140.424L219.056 200H128C121.635 200 115.53 202.529 111.029 207.03C106.529 211.53 104 217.635 104 224V296H504V224C504 217.635 501.471 211.53 496.971 207.03C492.47 202.529 486.365 200 480 200ZM236.944 200L260.944 152H347.056L371.056 200H236.944Z" fill="#F5F5F5" fill-opacity="0.6"/>
<path d="M216 224.248V207.928C235.92 199.746 252.784 185.541 264.231 167.3C275.679 149.06 281.136 127.696 279.84 106.2C278.418 80.563 267.557 56.3595 249.351 38.2541C231.144 20.1486 206.881 9.42245 181.236 8.14271C155.592 6.86296 130.381 15.1202 110.463 31.3231C90.5441 47.526 77.3276 70.5279 73.36 95.896V96.008C72.5027 101.297 72.048 106.643 72 112C72.0378 132.514 78.1316 152.559 89.5171 169.623C100.903 186.687 117.073 200.01 136 207.92V224.248C101.392 226.328 68.8804 241.53 45.0954 266.756C21.3105 291.981 8.04349 325.329 8 360V384C8 390.365 10.5286 396.47 15.0294 400.971C19.5303 405.471 25.6348 408 32 408H320C326.365 408 332.47 405.471 336.971 400.971C341.471 396.47 344 390.365 344 384V360C343.957 325.329 330.69 291.981 306.905 266.756C283.12 241.53 250.608 226.328 216 224.248ZM179.624 24.08C197.664 24.952 215.008 31.3095 229.338 42.3028C243.668 53.2962 254.301 68.4016 259.816 85.6C243.83 81.8237 229.221 73.6487 217.64 62C216.11 60.5411 214.078 59.7272 211.964 59.7272C209.85 59.7272 207.818 60.5411 206.288 62C198.154 70.2555 188.457 76.8068 177.762 81.271C167.067 85.7353 155.589 88.0228 144 88H91.376C96.7383 68.9645 108.369 52.2965 124.386 40.6956C140.402 29.0946 159.865 23.24 179.624 24.08ZM168 392H32C29.8783 392 27.8434 391.157 26.3431 389.657C24.8429 388.157 24 386.122 24 384V360C24.0411 334.145 32.4202 308.992 47.893 288.278C63.3658 267.563 85.107 252.392 109.888 245.016L168 299.472V392ZM129.04 241.04C134 240.381 138.997 240.034 144 240C146.122 240 148.157 239.157 149.657 237.657C151.157 236.157 152 234.122 152 232V202.4C151.999 200.747 151.486 199.136 150.532 197.786C149.578 196.437 148.23 195.416 146.672 194.864C129.541 188.789 114.707 177.565 104.204 162.73C93.7 147.896 88.0403 130.176 88 112C88 109.312 88.16 106.648 88.4 104H144C169.002 104.063 193.172 95.0258 212 78.576C226.581 91.1952 244.387 99.5055 263.424 102.576C263.584 104.064 263.808 105.528 263.888 107.032C265.029 126.049 259.929 144.918 249.363 160.771C238.797 176.623 223.344 188.592 205.352 194.856C203.789 195.404 202.434 196.425 201.475 197.776C200.517 199.127 200.001 200.743 200 202.4V232C200 234.122 200.843 236.157 202.343 237.657C203.843 239.157 205.878 240 208 240C213.003 240.034 218 240.381 222.96 241.04L176 285.048L129.04 241.04ZM328 384C328 386.122 327.157 388.157 325.657 389.657C324.157 391.157 322.122 392 320 392H184V299.472L242.112 245.016C266.893 252.392 288.634 267.563 304.107 288.278C319.58 308.992 327.959 334.145 328 360V384Z" fill="#C39167"/>
</svg>
