<svg width="512" height="512" viewBox="0 0 512 512" fill="none" xmlns="http://www.w3.org/2000/svg">
<path d="M496 504H336C333.878 504 331.843 503.157 330.343 501.657C328.843 500.157 328 498.122 328 496C328 493.878 328.843 491.843 330.343 490.343C331.843 488.843 333.878 488 336 488H496C498.122 488 500.157 488.843 501.657 490.343C503.157 491.843 504 493.878 504 496C504 498.122 503.157 500.157 501.657 501.657C500.157 503.157 498.122 504 496 504Z" fill="#F5F5F5" fill-opacity="0.6"/>
<path d="M488 416H344C335.163 416 328 423.163 328 432V456C328 464.837 335.163 472 344 472H488C496.837 472 504 464.837 504 456V432C504 423.163 496.837 416 488 416Z" fill="#F5F5F5" fill-opacity="0.6"/>
<path d="M488 200H344C335.163 200 328 207.163 328 216V240C328 248.837 335.163 256 344 256H488C496.837 256 504 248.837 504 240V216C504 207.163 496.837 200 488 200Z" fill="#F5F5F5" fill-opacity="0.6"/>
<path d="M320 304H128C121.635 304 115.53 306.529 111.029 311.029C106.529 315.53 104 321.635 104 328V344C104 350.365 106.529 356.47 111.029 360.971C115.53 365.471 121.635 368 128 368H320C322.122 368 324.157 367.157 325.657 365.657C327.157 364.157 328 362.122 328 360V312C328 309.878 327.157 307.843 325.657 306.343C324.157 304.843 322.122 304 320 304Z" fill="#F5F5F5" fill-opacity="0.6"/>
<path d="M344 272V400H488V272H344ZM424 376C424 378.122 423.157 380.157 421.657 381.657C420.157 383.157 418.122 384 416 384C413.878 384 411.843 383.157 410.343 381.657C408.843 380.157 408 378.122 408 376V296C408 293.878 408.843 291.843 410.343 290.343C411.843 288.843 413.878 288 416 288C418.122 288 420.157 288.843 421.657 290.343C423.157 291.843 424 293.878 424 296V376Z" fill="#F5F5F5" fill-opacity="0.6"/>
<path d="M288 8H80C78.9476 8.00022 77.9056 8.20809 76.9337 8.61168C75.9617 9.01528 75.079 9.60668 74.336 10.352L10.336 74.352C8.8405 75.8513 8.00045 77.8824 8 80V384C8 390.365 10.5286 396.47 15.0294 400.971C19.5303 405.471 25.6348 408 32 408H288C294.365 408 300.47 405.471 304.971 400.971C309.471 396.47 312 390.365 312 384V32C312 25.6348 309.471 19.5303 304.971 15.0294C300.47 10.5286 294.365 8 288 8ZM72 35.312V72H35.312L72 35.312ZM296 384C296 386.122 295.157 388.157 293.657 389.657C292.157 391.157 290.122 392 288 392H32C29.8783 392 27.8434 391.157 26.3431 389.657C24.8429 388.157 24 386.122 24 384V88H80C82.1217 88 84.1566 87.1571 85.6569 85.6569C87.1571 84.1566 88 82.1217 88 80V24H288C290.122 24 292.157 24.8429 293.657 26.3431C295.157 27.8434 296 29.8783 296 32V384Z" fill="#C39167"/>
<path d="M208 64H264C266.122 64 268.157 63.1571 269.657 61.6569C271.157 60.1566 272 58.1217 272 56C272 53.8783 271.157 51.8434 269.657 50.3431C268.157 48.8429 266.122 48 264 48H208C205.878 48 203.843 48.8429 202.343 50.3431C200.843 51.8434 200 53.8783 200 56C200 58.1217 200.843 60.1566 202.343 61.6569C203.843 63.1571 205.878 64 208 64Z" fill="#C39167"/>
<path d="M208 104H264C266.122 104 268.157 103.157 269.657 101.657C271.157 100.157 272 98.1217 272 96C272 93.8783 271.157 91.8434 269.657 90.3431C268.157 88.8429 266.122 88 264 88H208C205.878 88 203.843 88.8429 202.343 90.3431C200.843 91.8434 200 93.8783 200 96C200 98.1217 200.843 100.157 202.343 101.657C203.843 103.157 205.878 104 208 104Z" fill="#C39167"/>
<path d="M221.656 138.344C220.156 136.844 218.121 136.002 216 136.002C213.879 136.002 211.844 136.844 210.344 138.344L50.344 298.344C48.8436 299.844 48.0005 301.878 48 304V360C48 362.122 48.8429 364.157 50.3431 365.657C51.8434 367.157 53.8783 368 56 368H112C114.122 368 116.156 367.156 117.656 365.656L277.656 205.656C279.156 204.156 279.998 202.121 279.998 200C279.998 197.879 279.156 195.844 277.656 194.344L221.656 138.344ZM108.688 352H64V307.312L180 191.312L224.688 236L108.688 352ZM236 224.688L191.312 180L216 155.312L260.688 200L236 224.688Z" fill="#C39167"/>
</svg>
