<svg width="540" height="540" viewBox="0 0 540 540" fill="none" xmlns="http://www.w3.org/2000/svg">
<circle cx="270" cy="270" r="257.5" fill="#F5F5F5" stroke="#C39167" stroke-width="25"/>
<path d="M388.997 401.192L373.887 334.565C373.604 333.318 372.78 332.264 371.639 331.688L294.997 292.995V280.57C302.918 271.648 308.821 259.942 312.191 250.807C323.261 246.816 326.139 225.819 316.491 218.433C329.702 196.537 328.282 168.507 325.688 164.685C311.486 143.66 294.84 133 276.213 133C252.554 133 233.829 150.432 229.301 155.029C222.982 156.418 218.359 159.808 215.538 165.12C207.861 179.591 216.739 204.783 222.476 218.076C218.789 221.309 216.821 227.364 217.687 234.255C218.62 241.844 222.639 247.905 227.721 249.905C231.664 260.895 237.794 272.072 245.29 280.423V292.982C238.306 296.517 177.946 326.992 168.645 331.688C167.505 332.264 166.681 333.318 166.398 334.565L151.108 402C150.499 404.677 152.538 407.233 155.286 407.233C201.186 407.233 340.734 407.233 385 407.233C385.028 407.23 385.057 407.228 385.086 407.233C388.203 407.233 390.262 404.009 388.997 401.192ZM313.572 352.094L322.541 363.507L305.577 398.663H291.777L301.762 337.028C301.763 337.021 301.766 337.016 301.767 337.009L306.466 308.385L313.701 312.038L327.016 340.168L315.17 345.543C313.971 346.087 313.091 347.15 312.777 348.428C312.465 349.707 312.758 351.058 313.572 352.094ZM257.191 398.663L253.811 377.847L267.139 342.024C267.704 340.507 267.367 338.804 266.266 337.618L259.394 330.207C259.823 329.912 270.829 322.35 270.127 322.832L280.067 329.607L280.077 329.615C280.141 329.659 280.215 329.673 280.28 329.712L280.628 329.95L273.918 337.733C272.897 338.915 272.602 340.56 273.148 342.024L286.469 377.829L283.093 398.663H257.191V398.663ZM286.427 288.328V293.939L270.128 311.37L253.86 293.943V288.191C264.702 295.849 275.708 295.825 286.427 288.328ZM258.188 341.509L251.034 360.74L247.396 338.331L252.202 335.054L258.188 341.509ZM291.647 300.906L298.379 304.308L294.381 328.986L276.693 316.897C277.099 316.463 292.626 299.859 291.647 300.906ZM287.748 334.815L292.87 338.314L289.242 360.71L282.063 341.411L287.748 334.815ZM248.635 300.906L263.58 316.915C263.151 317.208 244.725 329.781 245.901 328.979L241.905 304.307C242.339 304.088 249.07 300.686 248.635 300.906ZM223.108 169.137C224.845 165.865 227.805 163.925 232.155 163.205C233.105 163.046 233.977 162.572 234.626 161.86C234.812 161.657 253.389 141.57 276.213 141.57C291.603 141.57 305.684 150.704 318.07 168.725C318.704 172.844 320.945 192.235 310.802 211.216C308.616 199.352 309.615 191.831 303.368 193.313C260.321 203.497 240.8 183.252 236.592 184.724C232.79 186.032 234.116 189.065 228.223 209.544C222.302 194.386 218.555 177.717 223.108 169.137ZM231.297 242.039C229.883 241.942 226.884 238.829 226.192 233.199C225.816 230.21 226.278 227.792 226.968 226.202C227.78 226.729 228.742 227.01 229.736 226.903C231.512 226.713 232.985 225.441 233.429 223.711L240.691 195.47C255.988 203.683 277.11 207.272 300.811 202.631L304.033 223.577C304.357 225.68 306.167 227.211 308.268 227.211C310.452 227.211 311.237 225.876 311.669 225.531C315.974 229.976 312.926 242.718 308.831 242.836C307.04 242.886 305.469 244.045 304.893 245.744C298.219 265.436 284.147 285.373 270.164 285.373C255.956 285.373 241.758 265.043 235.078 244.961C234.529 243.309 233.036 242.154 231.297 242.039ZM174.309 338.43L214.112 318.335L203.627 340.434C203.133 341.474 203.079 342.666 203.475 343.746C203.87 344.826 204.684 345.7 205.73 346.175L216.601 351.094L209.356 360.312C208.345 361.599 208.155 363.35 208.866 364.823L225.197 398.663H160.651L174.309 338.43ZM234.711 398.663L217.746 363.507L226.715 352.094C227.529 351.058 227.822 349.707 227.508 348.428C227.196 347.148 226.313 346.085 225.114 345.541L213.239 340.166L226.586 312.037L233.85 308.37L248.51 398.663H234.711ZM315.09 398.663L331.421 364.823C332.132 363.35 331.942 361.599 330.931 360.314L323.683 351.092L334.523 346.173C335.569 345.698 336.381 344.823 336.777 343.746C337.172 342.668 337.118 341.476 336.626 340.438L326.159 318.327L365.976 338.43L379.636 398.663H315.09V398.663Z" fill="#575C71"/>
</svg>
