<svg width="540" height="540" viewBox="0 0 540 540" fill="none" xmlns="http://www.w3.org/2000/svg">
<circle cx="270" cy="270" r="257.5" fill="#F5F5F5" stroke="#C39167" stroke-width="25"/>
<path d="M269.547 192.418C267.004 192.418 264.519 193.172 262.405 194.585C260.291 195.997 258.643 198.005 257.67 200.354C256.697 202.703 256.443 205.287 256.939 207.781C257.435 210.274 258.659 212.565 260.457 214.363C262.255 216.16 264.545 217.385 267.039 217.881C269.532 218.377 272.117 218.122 274.466 217.149C276.815 216.176 278.822 214.529 280.235 212.415C281.647 210.301 282.401 207.816 282.401 205.273C282.401 201.864 281.047 198.594 278.636 196.183C276.225 193.773 272.956 192.418 269.547 192.418ZM269.547 209.558C268.699 209.558 267.871 209.307 267.166 208.836C266.461 208.365 265.912 207.696 265.588 206.913C265.264 206.13 265.179 205.268 265.344 204.437C265.509 203.606 265.917 202.842 266.517 202.243C267.116 201.644 267.879 201.236 268.711 201.071C269.542 200.905 270.403 200.99 271.186 201.314C271.969 201.639 272.638 202.188 273.109 202.893C273.58 203.597 273.831 204.426 273.831 205.273C273.831 206.41 273.38 207.499 272.576 208.303C271.773 209.107 270.683 209.558 269.547 209.558Z" fill="#575C71"/>
<path d="M393.808 260.977H387.886L362.177 209.558C364.028 207.965 365.515 205.993 366.536 203.775C367.558 201.557 368.091 199.145 368.099 196.704C368.099 196.241 368 195.808 367.962 195.354L385.958 192.354L384.553 183.905L365.189 187.131C363.362 184.404 360.787 182.261 357.773 180.959C354.759 179.657 351.433 179.252 348.195 179.791C344.956 180.331 341.942 181.792 339.513 184C337.083 186.209 335.342 189.07 334.497 192.243L298.684 198.22C297.623 193.887 295.612 189.843 292.796 186.383C289.98 182.923 286.429 180.132 282.401 178.214V165.921C285.258 164.915 287.666 162.93 289.2 160.318C290.733 157.707 291.293 154.636 290.78 151.651C290.267 148.667 288.714 145.96 286.396 144.01C284.078 142.061 281.145 140.994 278.116 141H260.977C257.948 140.994 255.015 142.061 252.697 144.01C250.38 145.96 248.826 148.667 248.313 151.651C247.8 154.636 248.36 157.707 249.893 160.318C251.427 162.93 253.835 164.915 256.692 165.921V178.214C251.57 180.644 247.241 184.475 244.208 189.264C241.174 194.053 239.56 199.604 239.552 205.273C239.552 206.212 239.608 207.133 239.694 208.046L203.058 214.152C201.362 211.044 198.74 208.541 195.556 206.991C192.372 205.442 188.785 204.922 185.293 205.504C181.8 206.087 178.576 207.742 176.067 210.241C173.558 212.74 171.89 215.957 171.294 219.448L153.152 222.473L154.557 230.923L172.014 228.013C172.99 230.816 174.68 233.316 176.916 235.267L151.207 286.686H145.285C144.148 286.686 143.059 287.138 142.255 287.941C141.451 288.745 141 289.835 141 290.971V294.913C141.005 299.548 142.848 303.992 146.125 307.27C149.403 310.547 153.847 312.391 158.482 312.395H217.785C222.42 312.391 226.864 310.547 230.142 307.27C233.42 303.992 235.263 299.548 235.267 294.913V290.971C235.267 289.835 234.816 288.745 234.012 287.941C233.209 287.138 232.119 286.686 230.983 286.686H225.061L199.352 235.267C201.195 233.682 202.678 231.719 203.699 229.512C204.721 227.305 205.257 224.905 205.273 222.473L241.716 216.414C244.539 223.408 249.883 229.088 256.692 232.332V338.105C247.211 338.118 238.067 341.619 231.001 347.94C223.936 354.262 219.443 362.963 218.381 372.384H205.273C204.137 372.384 203.047 372.835 202.243 373.639C201.44 374.442 200.988 375.532 200.988 376.669V393.808C200.988 394.945 201.44 396.034 202.243 396.838C203.047 397.642 204.137 398.093 205.273 398.093H333.82C334.956 398.093 336.046 397.642 336.85 396.838C337.653 396.034 338.105 394.945 338.105 393.808V376.669C338.105 375.532 337.653 374.442 336.85 373.639C336.046 372.835 334.956 372.384 333.82 372.384H320.712C319.65 362.963 315.157 354.262 308.092 347.94C301.027 341.619 291.882 338.118 282.401 338.105V232.332C287.286 230.007 291.451 226.403 294.454 221.904C297.458 217.404 299.189 212.176 299.464 206.773L334.415 200.946C335.277 204.29 337.135 207.293 339.741 209.558L314.032 260.977H308.11C306.974 260.977 305.884 261.428 305.081 262.232C304.277 263.035 303.826 264.125 303.826 265.262V269.204C303.83 273.839 305.673 278.283 308.951 281.561C312.229 284.838 316.673 286.682 321.308 286.686H380.611C385.246 286.682 389.69 284.838 392.968 281.561C396.245 278.283 398.088 273.839 398.093 269.204V265.262C398.093 264.125 397.642 263.035 396.838 262.232C396.034 261.428 394.945 260.977 393.808 260.977ZM188.134 213.843C189.829 213.843 191.486 214.346 192.895 215.287C194.304 216.229 195.403 217.567 196.051 219.133C196.7 220.699 196.869 222.422 196.539 224.085C196.208 225.747 195.392 227.274 194.193 228.473C192.995 229.671 191.468 230.487 189.806 230.818C188.143 231.149 186.42 230.979 184.854 230.33C183.288 229.682 181.95 228.583 181.008 227.174C180.067 225.765 179.564 224.108 179.564 222.413C179.564 220.14 180.467 217.96 182.074 216.353C183.681 214.746 185.861 213.843 188.134 213.843ZM217.785 303.826H158.482C156.177 303.825 153.962 302.933 152.301 301.335C150.639 299.738 149.661 297.559 149.57 295.256H226.698C226.607 297.559 225.628 299.738 223.967 301.335C222.305 302.933 220.09 303.825 217.785 303.826V303.826ZM215.48 286.686H160.788L184.547 239.162C186.91 239.682 189.357 239.682 191.72 239.162L215.48 286.686ZM260.977 149.57H278.116C279.253 149.57 280.343 150.021 281.146 150.825C281.95 151.628 282.401 152.718 282.401 153.855C282.401 154.991 281.95 156.081 281.146 156.885C280.343 157.688 279.253 158.14 278.116 158.14H260.977C259.84 158.14 258.75 157.688 257.947 156.885C257.143 156.081 256.692 154.991 256.692 153.855C256.692 152.718 257.143 151.628 257.947 150.825C258.75 150.021 259.84 149.57 260.977 149.57V149.57ZM273.831 166.709V175.622C270.993 175.165 268.1 175.165 265.262 175.622V166.709H273.831ZM329.535 380.954V389.523H209.558V380.954H329.535ZM312.053 372.384H227.04C228.075 365.253 231.64 358.733 237.083 354.013C242.527 349.293 249.487 346.688 256.692 346.674H282.401C289.606 346.688 296.566 349.293 302.01 354.013C307.453 358.733 311.018 365.253 312.053 372.384ZM265.262 338.105V234.925C268.1 235.382 270.993 235.382 273.831 234.925V338.105H265.262ZM269.547 226.698C265.309 226.698 261.167 225.441 257.644 223.087C254.121 220.733 251.374 217.387 249.753 213.472C248.131 209.557 247.707 205.25 248.534 201.094C249.36 196.938 251.401 193.12 254.397 190.124C257.393 187.128 261.211 185.087 265.367 184.261C269.523 183.434 273.83 183.858 277.745 185.48C281.66 187.101 285.006 189.847 287.36 193.371C289.714 196.894 290.971 201.036 290.971 205.273C290.964 210.953 288.705 216.399 284.688 220.415C280.672 224.432 275.227 226.691 269.547 226.698V226.698ZM350.959 188.134C352.654 188.134 354.311 188.636 355.72 189.578C357.13 190.52 358.228 191.858 358.877 193.424C359.525 194.99 359.695 196.713 359.364 198.375C359.034 200.038 358.218 201.565 357.019 202.763C355.821 203.962 354.294 204.778 352.631 205.109C350.969 205.439 349.246 205.27 347.68 204.621C346.114 203.972 344.775 202.874 343.834 201.465C342.892 200.055 342.39 198.398 342.39 196.704C342.39 194.431 343.292 192.251 344.9 190.644C346.507 189.037 348.686 188.134 350.959 188.134V188.134ZM347.373 213.453C349.734 213.973 352.18 213.973 354.541 213.453L378.305 260.977H323.613L347.373 213.453ZM380.611 278.116H321.308C319.003 278.116 316.788 277.223 315.126 275.626C313.465 274.028 312.486 271.85 312.395 269.547H389.523C389.432 271.85 388.454 274.028 386.792 275.626C385.131 277.223 382.916 278.116 380.611 278.116Z" fill="#575C71"/>
</svg>
