<svg width="1495" height="225" viewBox="0 0 1495 225" fill="none" xmlns="http://www.w3.org/2000/svg">
<path d="M324.836 76.6719C324.836 77.6875 324.25 80.7344 323.078 85.8125C321.906 90.8125 321.008 93.4688 320.383 93.7812C313.586 97.0625 304.523 98.7031 293.195 98.7031C282.883 98.7031 274.094 94.9141 266.828 87.3359C259.562 79.7578 255.93 70.7344 255.93 60.2656C255.93 49.1719 259.641 39.6797 267.062 31.7891C274.484 23.8203 283.625 19.8359 294.484 19.8359C303.312 19.8359 312.531 20.8906 322.141 23C322.375 23.0781 322.609 25.6562 322.844 30.7344C323.078 35.7344 323.195 38.8594 323.195 40.1094C323.195 41.2812 322.258 41.8672 320.383 41.8672C319.914 41.8672 319.367 41.7109 318.742 41.3984C318.43 39.9922 317.844 38.5469 316.984 37.0625C316.203 35.5781 314.992 33.8984 313.352 32.0234C311.711 30.1484 309.289 28.625 306.086 27.4531C302.883 26.2031 299.172 25.5781 294.953 25.5781C287.297 25.5781 281.32 28.7422 277.023 35.0703C272.805 41.3984 270.695 48.9766 270.695 57.8047C270.695 67.6484 273.078 76.0078 277.844 82.8828C282.688 89.6797 289.484 93.0781 298.234 93.0781C305.188 93.0781 310.695 90.8906 314.758 86.5156C315.773 85.4219 316.672 83.9766 317.453 82.1797C318.312 80.3047 318.938 78.7422 319.328 77.4922C319.797 76.2422 320.109 75.6172 320.266 75.6172C323 75.6172 324.523 75.9688 324.836 76.6719ZM353.312 37.2969V81.3594C353.312 85.1875 353.664 88.3125 354.367 90.7344C354.758 91.75 357.414 92.2578 362.336 92.2578H366.672C372.766 92.2578 377.414 91.4375 380.617 89.7969C381.867 89.1719 383.273 87.8047 384.836 85.6953C386.398 83.5859 387.609 81.2031 388.469 78.5469C388.547 78.0781 389.094 77.8438 390.109 77.8438C391.828 77.8438 392.922 78.0781 393.391 78.5469C393.156 79.25 392.57 80.8516 391.633 83.3516C390.773 85.8516 390.109 87.7656 389.641 89.0938C389.172 90.3438 388.664 91.9062 388.117 93.7812C387.57 95.6562 387.219 97.1797 387.062 98.3516C383.938 98.3516 377.453 98.2344 367.609 98C357.844 97.7656 350.969 97.7266 346.984 97.8828L331.398 98.3516C331.164 98.1172 331.047 97.4922 331.047 96.4766C331.047 95.1484 331.164 94.4844 331.398 94.4844C332.414 94.4844 333.898 94.25 335.852 93.7812C337.805 93.2344 338.938 92.6094 339.25 91.9062C339.797 90.2656 340.07 86.7109 340.07 81.2422V36.9453C340.07 32.1797 339.758 28.8594 339.133 26.9844C338.82 26.3594 337.727 25.7734 335.852 25.2266C333.977 24.6016 332.57 24.2891 331.633 24.2891C331.32 24.2891 331.164 23.7031 331.164 22.5312C331.164 21.2813 331.242 20.5781 331.398 20.4219C331.789 20.4219 333.938 20.5391 337.844 20.7734C341.828 21.0078 344.875 21.125 346.984 21.125C347.609 21.125 352.609 20.8906 361.984 20.4219C362.219 21.125 362.336 21.75 362.336 22.2969C362.336 23.625 362.18 24.2891 361.867 24.2891C361.164 24.2891 359.758 24.6016 357.648 25.2266C355.539 25.8516 354.406 26.4375 354.25 26.9844C353.625 29.4062 353.312 32.8438 353.312 37.2969ZM442.141 20.6562L466.75 82.0625C467.922 85.1875 469.094 88.0391 470.266 90.6172C470.734 91.7891 471.984 92.7266 474.016 93.4297C476.047 94.1328 477.531 94.4844 478.469 94.4844C478.781 94.4844 478.938 95.1875 478.938 96.5938C478.938 97.5312 478.859 98.1172 478.703 98.3516C469.328 97.8828 464.406 97.6484 463.938 97.6484C463.391 97.6484 458.312 97.8828 448.703 98.3516C448.391 98.0391 448.234 97.3359 448.234 96.2422C448.234 95.0703 448.391 94.4844 448.703 94.4844C449.641 94.4844 450.93 94.25 452.57 93.7812C454.211 93.3125 455.188 92.7656 455.5 92.1406C455.734 91.6719 455.852 91.1641 455.852 90.6172C455.852 89.0547 455.109 86.3594 453.625 82.5312L449.523 71.6328C449.211 71.3203 448.938 71.1641 448.703 71.1641C446.203 71.0078 442.844 70.9297 438.625 70.9297C434.406 70.9297 429.953 71.0469 425.266 71.2812C424.797 71.2812 424.562 71.4375 424.562 71.75L420.109 82.6484C418.625 86.7109 417.883 89.25 417.883 90.2656C417.883 91.2812 418.312 92.0625 419.172 92.6094C419.875 93.0781 421.086 93.5078 422.805 93.8984C424.602 94.2891 425.812 94.4844 426.438 94.4844C426.672 94.5625 426.789 95.1094 426.789 96.125C426.789 97.1406 426.711 97.8828 426.555 98.3516C426.164 98.3516 424.328 98.2344 421.047 98C417.766 97.7656 415.109 97.6484 413.078 97.6484C411.047 97.6484 408.625 97.7656 405.812 98C403.078 98.1562 401.125 98.2734 399.953 98.3516C399.641 98.0391 399.484 97.4531 399.484 96.5938C399.484 95.1875 399.562 94.4844 399.719 94.4844C400.656 94.4844 402.141 94.1719 404.172 93.5469C406.281 92.8438 407.609 92.0625 408.156 91.2031C409.641 88.8594 411.125 85.8125 412.609 82.0625L434.406 29.3281C436.203 24.6406 437.648 21.8281 438.742 20.8906C439.367 20.3438 440.031 20.0703 440.734 20.0703C441.281 20.0703 441.75 20.2656 442.141 20.6562ZM428.078 64.25C430.812 64.4844 433.625 64.6016 436.516 64.6016C439.25 64.6016 442.453 64.4844 446.125 64.25L446.359 63.7812L437.453 40.3438L427.844 63.7812C427.844 64.0938 427.922 64.25 428.078 64.25ZM516.32 26.5156C513.039 26.5156 510.773 26.7891 509.523 27.3359C508.664 27.7266 508.195 31.7891 508.117 39.5234V53C508.117 54.7188 508.781 55.8516 510.109 56.3984C511.438 56.9453 513.273 57.2188 515.617 57.2188H518.664C521.555 57.2188 524.133 55.8516 526.398 53.1172C528.742 50.3828 529.914 46.8281 529.914 42.4531C529.914 31.8281 525.383 26.5156 516.32 26.5156ZM518.195 20.6562C520.227 20.6562 522.336 20.8906 524.523 21.3594C526.789 21.75 529.094 22.4531 531.438 23.4688C533.859 24.4844 536.008 25.7344 537.883 27.2188C539.758 28.7031 541.281 30.6563 542.453 33.0781C543.625 35.5 544.211 38.2344 544.211 41.2812C544.211 45.5 542.844 49.4844 540.109 53.2344C537.375 56.9844 534.055 59.6406 530.148 61.2031C529.523 61.4375 529.367 61.8281 529.68 62.375C534.055 70.2656 538.43 76.9062 542.805 82.2969C545.539 85.6562 548.469 88.5469 551.594 90.9688C554.797 93.3125 557.727 94.4844 560.383 94.4844C560.695 94.9531 560.852 95.5781 560.852 96.3594C560.852 97.1406 560.695 97.8438 560.383 98.4688C559.445 98.625 558.234 98.7031 556.75 98.7031C552.766 98.7031 549.133 98.2344 545.852 97.2969C542.648 96.3594 539.836 94.9922 537.414 93.1953C535.07 91.3203 533.117 89.5234 531.555 87.8047C529.992 86.0859 528.352 83.8984 526.633 81.2422C525.539 79.6797 524.289 77.8438 522.883 75.7344C521.477 73.625 520.383 72.0234 519.602 70.9297C518.898 69.7578 518.078 68.5469 517.141 67.2969C516.203 66.0469 515.383 65.1094 514.68 64.4844C514.055 63.8594 513.43 63.4297 512.805 63.1953C512.336 62.9609 511.398 62.8438 509.992 62.8438C508.742 62.8438 508.117 63.5078 508.117 64.8359V81.3594C508.117 86.0469 508.43 89.3672 509.055 91.3203C509.289 92.2578 510.578 93.0391 512.922 93.6641C515.344 94.2109 517.102 94.4844 518.195 94.4844C518.508 94.4844 518.664 95.1484 518.664 96.4766C518.664 97.3359 518.586 98 518.43 98.4688C509.836 98 504.289 97.7656 501.789 97.7656C499.68 97.7656 497.297 97.8438 494.641 98C492.062 98.0781 489.992 98.1562 488.43 98.2344L486.086 98.4688C485.852 98.1562 485.734 97.4531 485.734 96.3594C485.734 95.1094 485.852 94.4844 486.086 94.4844C487.102 94.4844 488.586 94.25 490.539 93.7812C492.57 93.2344 493.742 92.6094 494.055 91.9062C494.523 90.5 494.758 86.9453 494.758 81.2422V36.9453C494.758 32.4922 494.523 29.2891 494.055 27.3359C493.82 26.7109 492.648 26.0859 490.539 25.4609C488.508 24.7578 487.023 24.4062 486.086 24.4062C485.773 24.4062 485.617 23.8203 485.617 22.6484C485.617 21.4766 485.773 20.7734 486.086 20.5391C494.367 20.7734 499.562 20.8906 501.672 20.8906C503.859 20.8906 506.555 20.8516 509.758 20.7734C513.039 20.6953 515.852 20.6562 518.195 20.6562ZM614.055 77.375C614.055 72.375 612.648 68.2734 609.836 65.0703C607.102 61.7891 602.648 60.1484 596.477 60.1484C594.211 60.1484 591.789 60.3438 589.211 60.7344C588.586 61.125 588.273 61.9062 588.273 63.0781V84.875C588.273 88.1562 588.742 90.1875 589.68 90.9688C590.695 91.75 593.195 92.1406 597.18 92.1406C598.898 92.1406 600.578 91.9844 602.219 91.6719C603.859 91.2812 605.617 90.6562 607.492 89.7969C609.445 88.8594 611.008 87.3359 612.18 85.2266C613.43 83.0391 614.055 80.4219 614.055 77.375ZM575.031 81.2422V36.9453C575.031 32.2578 574.758 29.0547 574.211 27.3359C573.977 26.4766 572.883 25.7734 570.93 25.2266C568.977 24.6797 567.414 24.4062 566.242 24.4062C565.93 24.4062 565.773 23.8203 565.773 22.6484C565.773 21.5547 565.93 20.8516 566.242 20.5391C571.398 20.7734 576.594 20.8906 581.828 20.8906C585.812 20.8906 589.172 20.8906 591.906 20.8906C594.641 20.8125 596.984 20.7734 598.938 20.7734C601.75 20.7734 604.562 21.125 607.375 21.8281C610.188 22.5312 612.922 23.625 615.578 25.1094C618.234 26.5156 620.383 28.5859 622.023 31.3203C623.742 34.0547 624.602 37.2188 624.602 40.8125C624.602 43.625 623.781 46.2422 622.141 48.6641C620.5 51.0859 618.938 52.8047 617.453 53.8203C616.047 54.7578 614.836 55.4219 613.82 55.8125C613.195 56.0469 613.039 56.2812 613.352 56.5156C616.242 56.9844 619.445 59.0547 622.961 62.7266C626.555 66.3203 628.352 70.7734 628.352 76.0859C628.352 82.8047 625.617 88.1562 620.148 92.1406C614.758 96.125 607.57 98.0781 598.586 98L581.945 97.8828L566.359 98.3516C566.125 98.1172 566.008 97.4922 566.008 96.4766C566.008 95.1484 566.125 94.4844 566.359 94.4844C567.375 94.4844 568.859 94.25 570.812 93.7812C572.766 93.2344 573.898 92.6094 574.211 91.9062C574.758 90.2656 575.031 86.7109 575.031 81.2422ZM601.867 53.7031C607.57 52.4531 610.422 48.625 610.422 42.2188C610.422 31.6719 605.93 26.3984 596.945 26.3984C593.273 26.3984 590.773 26.5937 589.445 26.9844C588.82 27.1406 588.508 27.5703 588.508 28.2734L588.273 39.5234V53.2344C588.273 54.0156 590.617 54.4062 595.305 54.4062C598.195 54.4062 600.383 54.1719 601.867 53.7031ZM650.5 21.0078C653.938 21.0078 659.992 20.8906 668.664 20.6562C677.336 20.3438 683.898 20.1875 688.352 20.1875C688.664 22.5312 689.289 25.8125 690.227 30.0312C691.164 34.1719 691.672 36.4375 691.75 36.8281C691.359 37.2188 690.539 37.4141 689.289 37.4141C688.43 37.4141 687.883 37.1406 687.648 36.5938C685.07 29.6406 680.07 26.1641 672.648 26.1641H666.555C660.773 26.1641 657.805 26.6719 657.648 27.6875C657.18 29.875 656.945 33.0391 656.945 37.1797V55.5781C656.945 56.0469 658.664 56.2812 662.102 56.2812H668.195C668.273 56.2812 668.43 56.2812 668.664 56.2812C673.195 56.2812 675.891 56.0859 676.75 55.6953C677.609 55.3047 678.273 53.9375 678.742 51.5938C678.977 50.4219 679.211 49.4453 679.445 48.6641C679.523 48.1172 680.148 47.8438 681.32 47.8438C682.414 47.8438 683.156 48.0391 683.547 48.4297V70.5781C683.234 70.8906 682.492 71.0469 681.32 71.0469C680.305 71.0469 679.68 70.7344 679.445 70.1094C678.898 68 678.391 66.4375 677.922 65.4219C677.531 64.4062 677.258 63.8594 677.102 63.7812C677.023 63.7031 676.711 63.4688 676.164 63.0781C675.148 62.4531 671.555 62.1406 665.383 62.1406C659.758 62.1406 656.945 62.4531 656.945 63.0781V81.2422C656.945 85.5391 657.297 88.7031 658 90.7344C658.391 91.75 661.047 92.2578 665.969 92.2578H670.305C676.398 92.2578 681.047 91.4375 684.25 89.7969C685.5 89.1719 686.906 87.8047 688.469 85.6953C690.031 83.5859 691.242 81.2031 692.102 78.5469C692.18 78.0781 692.727 77.8438 693.742 77.8438C695.461 77.8438 696.555 78.0781 697.023 78.5469C696.789 79.25 696.203 80.8516 695.266 83.3516C694.406 85.8516 693.742 87.7656 693.273 89.0938C692.805 90.3438 692.297 91.9062 691.75 93.7812C691.203 95.6562 690.852 97.1797 690.695 98.3516C687.57 98.3516 681.086 98.2344 671.242 98C661.477 97.7656 654.602 97.7266 650.617 97.8828L635.031 98.3516C634.797 98.1172 634.68 97.4922 634.68 96.4766C634.68 95.1484 634.797 94.4844 635.031 94.4844C636.047 94.4844 637.531 94.25 639.484 93.7812C641.438 93.2344 642.57 92.6094 642.883 91.9062C643.43 90.2656 643.703 86.7109 643.703 81.2422V36.9453C643.703 32.2578 643.43 29.0547 642.883 27.3359C642.648 26.4766 641.555 25.7734 639.602 25.2266C637.648 24.6797 636.086 24.4062 634.914 24.4062C634.602 24.4062 634.445 23.8203 634.445 22.6484C634.445 21.5547 634.602 20.8516 634.914 20.5391C640.07 20.8516 645.266 21.0078 650.5 21.0078ZM733.703 26.5156C730.422 26.5156 728.156 26.7891 726.906 27.3359C726.047 27.7266 725.578 31.7891 725.5 39.5234V53C725.5 54.7188 726.164 55.8516 727.492 56.3984C728.82 56.9453 730.656 57.2188 733 57.2188H736.047C738.938 57.2188 741.516 55.8516 743.781 53.1172C746.125 50.3828 747.297 46.8281 747.297 42.4531C747.297 31.8281 742.766 26.5156 733.703 26.5156ZM735.578 20.6562C737.609 20.6562 739.719 20.8906 741.906 21.3594C744.172 21.75 746.477 22.4531 748.82 23.4688C751.242 24.4844 753.391 25.7344 755.266 27.2188C757.141 28.7031 758.664 30.6563 759.836 33.0781C761.008 35.5 761.594 38.2344 761.594 41.2812C761.594 45.5 760.227 49.4844 757.492 53.2344C754.758 56.9844 751.438 59.6406 747.531 61.2031C746.906 61.4375 746.75 61.8281 747.062 62.375C751.438 70.2656 755.812 76.9062 760.188 82.2969C762.922 85.6562 765.852 88.5469 768.977 90.9688C772.18 93.3125 775.109 94.4844 777.766 94.4844C778.078 94.9531 778.234 95.5781 778.234 96.3594C778.234 97.1406 778.078 97.8438 777.766 98.4688C776.828 98.625 775.617 98.7031 774.133 98.7031C770.148 98.7031 766.516 98.2344 763.234 97.2969C760.031 96.3594 757.219 94.9922 754.797 93.1953C752.453 91.3203 750.5 89.5234 748.938 87.8047C747.375 86.0859 745.734 83.8984 744.016 81.2422C742.922 79.6797 741.672 77.8438 740.266 75.7344C738.859 73.625 737.766 72.0234 736.984 70.9297C736.281 69.7578 735.461 68.5469 734.523 67.2969C733.586 66.0469 732.766 65.1094 732.062 64.4844C731.438 63.8594 730.812 63.4297 730.188 63.1953C729.719 62.9609 728.781 62.8438 727.375 62.8438C726.125 62.8438 725.5 63.5078 725.5 64.8359V81.3594C725.5 86.0469 725.812 89.3672 726.438 91.3203C726.672 92.2578 727.961 93.0391 730.305 93.6641C732.727 94.2109 734.484 94.4844 735.578 94.4844C735.891 94.4844 736.047 95.1484 736.047 96.4766C736.047 97.3359 735.969 98 735.812 98.4688C727.219 98 721.672 97.7656 719.172 97.7656C717.062 97.7656 714.68 97.8438 712.023 98C709.445 98.0781 707.375 98.1562 705.812 98.2344L703.469 98.4688C703.234 98.1562 703.117 97.4531 703.117 96.3594C703.117 95.1094 703.234 94.4844 703.469 94.4844C704.484 94.4844 705.969 94.25 707.922 93.7812C709.953 93.2344 711.125 92.6094 711.438 91.9062C711.906 90.5 712.141 86.9453 712.141 81.2422V36.9453C712.141 32.4922 711.906 29.2891 711.438 27.3359C711.203 26.7109 710.031 26.0859 707.922 25.4609C705.891 24.7578 704.406 24.4062 703.469 24.4062C703.156 24.4062 703 23.8203 703 22.6484C703 21.4766 703.156 20.7734 703.469 20.5391C711.75 20.7734 716.945 20.8906 719.055 20.8906C721.242 20.8906 723.938 20.8516 727.141 20.7734C730.422 20.6953 733.234 20.6562 735.578 20.6562ZM783.156 60.2656C783.156 49.25 786.906 39.7578 794.406 31.7891C801.906 23.8203 811.008 19.8359 821.711 19.8359C828.586 19.8359 837.648 21.2813 848.898 24.1719C849.133 24.25 849.445 26.8672 849.836 32.0234C850.305 37.1016 850.539 40.1094 850.539 41.0469C850.539 41.9844 849.758 42.4531 848.195 42.4531C847.102 42.4531 846.242 42.2188 845.617 41.75C845.383 40.6562 845.031 39.5625 844.562 38.4688C844.172 37.375 843.391 36.0078 842.219 34.3672C841.125 32.6484 839.758 31.2031 838.117 30.0312C836.555 28.8594 834.367 27.8438 831.555 26.9844C828.82 26.0469 825.695 25.5781 822.18 25.5781C814.523 25.5781 808.547 28.625 804.25 34.7188C799.953 40.8125 797.805 48.625 797.805 58.1562C797.805 63.7812 798.781 69.2109 800.734 74.4453C802.766 79.6016 805.93 84.0156 810.227 87.6875C814.602 91.2812 819.68 93.0781 825.461 93.0781C830.383 93.0781 834.133 92.3359 836.711 90.8516C837.492 90.3047 837.883 89.4062 837.883 88.1562L837.766 79.7188V78.8984C837.766 74.2109 837.492 71.0469 836.945 69.4062C836.633 68.3906 835.461 67.6484 833.43 67.1797C831.477 66.7109 829.836 66.4766 828.508 66.4766C828.195 66.4766 828.039 65.9297 828.039 64.8359C828.039 63.6641 828.195 62.9219 828.508 62.6094C829.367 62.6094 831.711 62.7266 835.539 62.9609C839.445 63.1953 842.57 63.3125 844.914 63.3125C844.992 63.3125 849.719 63.0781 859.094 62.6094C859.328 63.3125 859.445 63.9766 859.445 64.6016C859.445 65.9297 859.289 66.5938 858.977 66.5938C858.508 66.5938 857.453 66.8281 855.812 67.2969C854.25 67.7656 853.117 68.1562 852.414 68.4688C851.398 69.0938 850.891 71.9453 850.891 77.0234C850.891 78.6641 850.891 80.3047 850.891 81.9453C850.969 83.5859 851.008 84.4844 851.008 84.6406C851.008 86.0469 851.203 87.2578 851.594 88.2734C851.984 89.2891 852.18 89.875 852.18 90.0312C852.18 91.125 851.32 92.0625 849.602 92.8438C846.477 94.25 844.172 95.2266 842.688 95.7734C841.203 96.3203 838.352 96.9844 834.133 97.7656C829.992 98.5469 825.383 98.9375 820.305 98.9375C809.992 98.9375 801.203 95.1094 793.938 87.4531C786.75 79.7969 783.156 70.7344 783.156 60.2656ZM929.055 86.5156C927.414 84.7969 925.148 81.9453 922.258 77.9609C919.445 73.9766 917.023 70.4219 914.992 67.2969L911.945 62.7266C909.133 64.6797 906.945 66.8281 905.383 69.1719C903.898 71.4375 903.156 74.4844 903.156 78.3125C903.156 83 904.484 86.5156 907.141 88.8594C909.797 91.2031 913.078 92.375 916.984 92.375C919.172 92.375 921.359 91.8281 923.547 90.7344C925.812 89.5625 927.648 88.1562 929.055 86.5156ZM920.734 26.2812C918.234 26.2812 916.281 27.1797 914.875 28.9766C913.469 30.7734 912.766 32.9219 912.766 35.4219C912.766 39.1719 914.719 44.5625 918.625 51.5938C922.141 49.4062 924.68 47.2578 926.242 45.1484C927.883 42.9609 928.703 39.9922 928.703 36.2422C928.703 33.7422 927.961 31.4766 926.477 29.4453C925.07 27.3359 923.156 26.2812 920.734 26.2812ZM920.5 21.125C926.125 21.125 930.578 22.375 933.859 24.875C937.219 27.375 938.898 30.7344 938.898 34.9531C938.898 39.7188 937.414 43.7812 934.445 47.1406C931.555 50.4219 927.375 53.7031 921.906 56.9844C925.891 63.5469 930.969 70.5 937.141 77.8438C941.438 71.9062 943.586 68.2344 943.586 66.8281C943.586 66.0469 943.195 65.5391 942.414 65.3047C941.711 64.9922 940.852 64.8359 939.836 64.8359C938.898 64.7578 938.391 64.7188 938.312 64.7188C938.078 64.25 937.961 63.625 937.961 62.8438C937.961 62.0625 938.078 61.5938 938.312 61.4375H949.094C950.578 61.4375 954.875 61.2812 961.984 60.9688C962.375 61.2031 962.57 61.8281 962.57 62.8438C962.57 64.0938 962.297 64.7969 961.75 64.9531C960.812 64.9531 959.445 65.1875 957.648 65.6562C955.852 66.0469 954.562 66.5156 953.781 67.0625C953.469 67.2188 952.648 68.2344 951.32 70.1094C949.992 71.9062 948.352 74.1328 946.398 76.7891C944.445 79.3672 942.766 81.4766 941.359 83.1172C941.516 83.3516 941.984 83.8984 942.766 84.7578C943.625 85.6172 944.211 86.2031 944.523 86.5156C944.836 86.8281 945.344 87.3359 946.047 88.0391C946.75 88.6641 947.336 89.1328 947.805 89.4453C948.273 89.6797 948.781 89.9141 949.328 90.1484C949.953 90.3828 950.539 90.5 951.086 90.5C952.414 90.5 953.742 89.8359 955.07 88.5078C956.477 87.1797 957.453 85.9688 958 84.875C958.625 84.875 959.289 85.1484 959.992 85.6953C960.695 86.2422 961.047 86.75 961.047 87.2188C960.812 87.7656 960.344 88.5469 959.641 89.5625C959.016 90.5781 958.117 91.7891 956.945 93.1953C955.852 94.5234 954.367 95.6953 952.492 96.7109C950.695 97.7266 948.781 98.2344 946.75 98.2344C944.406 98.2344 942.102 97.6094 939.836 96.3594C937.57 95.1094 935.891 93.8594 934.797 92.6094L933.156 90.7344C927.297 95.8906 920.578 98.4688 913 98.4688C906.359 98.4688 900.852 96.8281 896.477 93.5469C892.18 90.2656 890.031 85.5 890.031 79.25C890.031 76.5156 890.539 73.9766 891.555 71.6328C892.648 69.2891 894.211 67.1797 896.242 65.3047C898.273 63.4297 900.148 61.9062 901.867 60.7344C903.586 59.4844 905.734 58.1562 908.312 56.75C908.234 56.6719 907.922 56.1641 907.375 55.2266C906.828 54.2891 906.477 53.7422 906.32 53.5859C906.242 53.3516 905.969 52.8047 905.5 51.9453C905.031 51.0859 904.719 50.5 904.562 50.1875C904.406 49.875 904.133 49.2891 903.742 48.4297C903.352 47.5703 903.078 46.9062 902.922 46.4375C902.844 45.9688 902.648 45.3438 902.336 44.5625C902.102 43.7812 901.945 43.1172 901.867 42.5703C901.789 41.9453 901.711 41.2812 901.633 40.5781C901.555 39.7969 901.516 39.0156 901.516 38.2344C901.516 33.0781 903.312 28.9375 906.906 25.8125C910.578 22.6875 915.109 21.125 920.5 21.125ZM1012.14 21.125C1012.53 21.125 1016.36 20.8906 1023.62 20.4219C1024.33 22.6094 1025.93 26.6719 1028.43 32.6094C1030.93 38.4688 1033.98 45.6562 1037.57 54.1719C1041.24 62.6094 1044.17 69.5625 1046.36 75.0312C1046.36 75.1875 1046.48 75.2656 1046.71 75.2656C1046.95 75.2656 1047.06 75.1484 1047.06 74.9141C1053.94 58.4297 1059.41 44.875 1063.47 34.25L1067.69 20.6562C1070.03 20.8906 1073.23 21.0078 1077.3 21.0078C1080.34 21.0078 1084.99 20.8125 1091.24 20.4219C1091.48 20.7344 1091.59 21.3594 1091.59 22.2969C1091.59 23.625 1091.44 24.2891 1091.12 24.2891H1090.89C1088.78 24.2891 1086.87 24.9141 1085.15 26.1641C1083.98 27.0234 1083.47 29.1328 1083.62 32.4922C1083.94 39.4453 1084.48 55.5781 1085.27 80.8906C1085.34 85.1094 1085.97 88.7031 1087.14 91.6719C1087.45 92.375 1088.55 93.0391 1090.42 93.6641C1092.3 94.2109 1093.62 94.4844 1094.41 94.4844C1094.72 94.4844 1094.88 95.1875 1094.88 96.5938C1094.88 97.2969 1094.8 97.8828 1094.64 98.3516C1085.27 97.8828 1080.46 97.6484 1080.23 97.6484C1078.66 97.6484 1077.02 97.6875 1075.3 97.7656C1073.59 97.8438 1071.67 97.9219 1069.56 98C1067.53 98.1562 1065.89 98.2734 1064.64 98.3516C1064.33 98.0391 1064.17 97.4531 1064.17 96.5938C1064.17 95.1875 1064.33 94.4844 1064.64 94.4844C1065.5 94.4844 1066.75 94.25 1068.39 93.7812C1070.03 93.2344 1071.12 92.6484 1071.67 92.0234C1072.45 91.0078 1072.84 89.6406 1072.84 87.9219V81.3594L1071.67 45.7344C1071.36 40.8906 1070.89 38.4688 1070.27 38.4688C1070.03 38.4688 1069.84 38.7031 1069.68 39.1719L1047.3 93.7812C1045.97 96.75 1044.48 98.2344 1042.84 98.2344C1042.53 98.2344 1042.14 98.1562 1041.67 98L1015.42 34.9531C1014.88 54.4062 1014.25 71.8281 1013.55 87.2188C1013.55 88.9375 1013.66 90.1484 1013.9 90.8516C1014.29 91.7109 1015.85 92.5312 1018.59 93.3125C1021.32 94.0938 1023.16 94.4844 1024.09 94.4844C1024.41 94.4844 1024.56 95.1875 1024.56 96.5938C1024.56 97.2969 1024.48 97.8828 1024.33 98.3516C1014.95 97.8828 1010.03 97.6484 1009.56 97.6484C1007.45 97.6484 1004.64 97.7656 1001.12 98C997.688 98.2344 995.578 98.3516 994.797 98.3516C994.484 98.0391 994.328 97.4141 994.328 96.4766C994.328 95.1484 994.484 94.4844 994.797 94.4844C996.047 94.4844 998 94.0938 1000.66 93.3125C1003.31 92.5312 1004.84 91.5156 1005.23 90.2656C1005.93 88.8594 1006.36 86.2422 1006.52 82.4141C1006.67 76.4766 1006.87 69.4844 1007.1 61.4375C1007.41 53.3125 1007.65 46.3984 1007.8 40.6953C1008.04 34.9922 1008.16 31.4375 1008.16 30.0312C1008.16 28.5469 1008.04 27.4531 1007.8 26.75C1007.57 26.125 1006.24 25.5391 1003.82 24.9922C1001.48 24.4453 999.797 24.1719 998.781 24.1719C998.469 24.1719 998.312 23.5078 998.312 22.1797C998.312 21.3203 998.469 20.7344 998.781 20.4219C999.953 20.5 1001.95 20.6562 1004.76 20.8906C1007.65 21.0469 1010.11 21.125 1012.14 21.125ZM1117.02 21.125C1118.43 21.125 1123.43 20.8906 1132.02 20.4219C1132.18 21.0469 1132.26 21.6719 1132.26 22.2969C1132.26 23.625 1132.1 24.2891 1131.79 24.2891C1131.09 24.2891 1129.68 24.6016 1127.57 25.2266C1125.46 25.7734 1124.37 26.3594 1124.29 26.9844C1123.66 29.3281 1123.35 32.7656 1123.35 37.2969V64.25C1123.35 72.2969 1125.07 78.7422 1128.51 83.5859C1132.02 88.3516 1136.87 90.7344 1143.04 90.7344C1149.05 90.7344 1153.86 88.7812 1157.45 84.875C1161.12 80.8906 1162.96 74.3281 1162.96 65.1875V36.5938C1162.96 31.8281 1162.57 28.7031 1161.79 27.2188C1161.32 26.5156 1159.91 25.8516 1157.57 25.2266C1155.3 24.5234 1153.66 24.1719 1152.65 24.1719C1152.34 24.1719 1152.14 23.625 1152.06 22.5312C1152.06 21.4375 1152.18 20.7344 1152.41 20.4219C1160.85 20.9687 1165.77 21.2422 1167.18 21.2422C1169.13 21.2422 1171.71 21.125 1174.91 20.8906C1178.2 20.5781 1180.23 20.4219 1181.01 20.4219C1181.16 20.9687 1181.24 21.5938 1181.24 22.2969C1181.24 23.5469 1181.09 24.1719 1180.77 24.1719C1179.68 24.1719 1178 24.4844 1175.73 25.1094C1173.47 25.6562 1171.98 26.4375 1171.28 27.4531C1170.42 29.4062 1169.99 32.6484 1169.99 37.1797V64.7188C1169.99 70.8125 1169.25 76.0859 1167.77 80.5391C1166.28 84.9141 1164.17 88.3906 1161.44 90.9688C1158.7 93.4688 1155.58 95.3047 1152.06 96.4766C1148.62 97.6484 1144.68 98.2344 1140.23 98.2344C1130.85 98.2344 1123.47 95.4219 1118.08 89.7969C1112.69 84.0938 1109.99 74.9531 1109.99 62.375V36.8281C1109.99 31.8281 1109.68 28.5469 1109.05 26.9844C1108.74 26.3594 1107.65 25.7734 1105.77 25.2266C1103.9 24.6016 1102.49 24.2891 1101.55 24.2891C1101.24 24.2891 1101.09 23.7031 1101.09 22.5312C1101.09 21.3594 1101.2 20.6562 1101.44 20.4219C1111.36 20.8906 1116.55 21.125 1117.02 21.125ZM1209.95 20.8906C1215.27 21.0469 1219.6 21.125 1222.96 21.125C1226.32 21.125 1230.66 21.0469 1235.97 20.8906C1241.28 20.6562 1245.54 20.5 1248.74 20.4219C1250.7 20.4219 1253.39 20.0312 1256.83 19.25L1259.05 37.1797C1258.51 37.7266 1257.45 38 1255.89 38C1255.27 38 1254.88 37.8047 1254.72 37.4141C1253.62 33.1172 1252.18 30.2266 1250.38 28.7422C1248.59 27.1797 1245.77 26.3984 1241.95 26.3984C1234.68 26.3984 1230.89 27.0625 1230.58 28.3906C1229.88 30.6563 1229.52 34.3281 1229.52 39.4062V81.7109C1229.52 85.9297 1229.88 89.3281 1230.58 91.9062C1230.66 92.4531 1231.71 93.0391 1233.74 93.6641C1235.77 94.2109 1237.14 94.4844 1237.84 94.4844C1238.16 94.4844 1238.31 95.1875 1238.31 96.5938C1238.31 97.375 1238.23 98 1238.08 98.4688C1237.06 98.3906 1235.54 98.2734 1233.51 98.1172C1231.55 97.9609 1229.72 97.8438 1228 97.7656C1226.36 97.6875 1224.76 97.6484 1223.2 97.6484C1221.09 97.6484 1218.16 97.7656 1214.41 98C1210.73 98.2344 1208.47 98.3906 1207.61 98.4688C1207.3 98.1562 1207.14 97.5312 1207.14 96.5938C1207.14 95.1875 1207.3 94.4844 1207.61 94.4844C1208.55 94.4844 1209.99 94.2109 1211.95 93.6641C1213.98 93.1172 1215.11 92.5312 1215.34 91.9062C1215.97 89.7969 1216.28 86.5547 1216.28 82.1797V39.7578C1216.28 33.2734 1215.93 29.4844 1215.23 28.3906C1214.6 27.0625 1210.89 26.3984 1204.09 26.3984C1200.27 26.3984 1197.45 27.1797 1195.66 28.7422C1193.86 30.2266 1192.38 33.0781 1191.2 37.2969C1191.12 37.7656 1190.73 38 1190.03 38C1188.55 38 1187.53 37.6875 1186.98 37.0625L1189.21 19.25C1192.65 20.0312 1195.34 20.4219 1197.3 20.4219C1200.5 20.5 1204.72 20.6562 1209.95 20.8906ZM1266.44 40.5781C1266.44 34.7188 1268.9 29.7969 1273.82 25.8125C1278.74 21.75 1284.29 19.7188 1290.46 19.7188C1292.65 19.7188 1294.56 19.8359 1296.2 20.0703C1297.84 20.3047 1300.11 20.8125 1303 21.5938C1305.97 22.2969 1308 22.7656 1309.09 23C1310.03 28.3125 1310.5 34.3281 1310.5 41.0469C1310.34 41.75 1309.88 42.1016 1309.09 42.1016C1306.98 42.1016 1305.85 41.75 1305.7 41.0469C1305.23 37.4531 1303.55 33.9375 1300.66 30.5C1297.77 27.0625 1294.25 25.3438 1290.11 25.3438C1286.52 25.3438 1283.74 26.3594 1281.79 28.3906C1279.91 30.4219 1278.98 33.1562 1278.98 36.5938C1278.98 37.7656 1279.09 38.8984 1279.33 39.9922C1279.64 41.0078 1280.19 42.0234 1280.97 43.0391C1281.83 44.0547 1282.49 44.9141 1282.96 45.6172C1283.51 46.2422 1284.48 47.0625 1285.89 48.0781C1287.38 49.0938 1288.35 49.7969 1288.82 50.1875C1289.37 50.5781 1290.54 51.3594 1292.34 52.5312C1294.21 53.625 1295.34 54.25 1295.73 54.4062C1296.2 54.7969 1297.49 55.6562 1299.6 56.9844C1301.79 58.2344 1303.31 59.1719 1304.17 59.7969C1305.03 60.3438 1306.28 61.3203 1307.92 62.7266C1309.56 64.1328 1310.73 65.4609 1311.44 66.7109C1312.22 67.9609 1312.92 69.5625 1313.55 71.5156C1314.17 73.3906 1314.48 75.4219 1314.48 77.6094C1314.48 83.8594 1311.95 89.0156 1306.87 93.0781C1301.87 97.1406 1296.05 99.1719 1289.41 99.1719C1284.72 99.1719 1277.53 98.0781 1267.84 95.8906C1267.14 93.0781 1266.48 89.5625 1265.85 85.3438C1265.3 81.0469 1265.03 78.2344 1265.03 76.9062C1265.11 76.2812 1265.73 75.9688 1266.91 75.9688C1268.94 75.9688 1270.07 76.2812 1270.3 76.9062C1270.62 78.3125 1271.16 79.875 1271.95 81.5938C1272.73 83.2344 1273.78 85.0312 1275.11 86.9844C1276.52 88.8594 1278.35 90.4219 1280.62 91.6719C1282.96 92.8438 1285.58 93.4297 1288.47 93.4297C1292.14 93.4297 1295.19 92.3359 1297.61 90.1484C1300.03 87.9609 1301.24 84.6797 1301.24 80.3047C1301.24 78.9766 1300.97 77.6875 1300.42 76.4375C1299.95 75.1875 1299.37 74.1328 1298.66 73.2734C1298.04 72.4141 1297.06 71.4766 1295.73 70.4609C1294.48 69.4453 1293.43 68.6641 1292.57 68.1172C1291.71 67.5703 1290.42 66.8281 1288.7 65.8906C1287.06 64.875 1285.89 64.1719 1285.19 63.7812C1284.95 63.5469 1284.52 63.2344 1283.9 62.8438C1281.63 61.4375 1279.91 60.3438 1278.74 59.5625C1277.57 58.7812 1276.05 57.6484 1274.17 56.1641C1272.38 54.6016 1271.01 53.1562 1270.07 51.8281C1269.13 50.5 1268.27 48.8594 1267.49 46.9062C1266.79 44.9531 1266.44 42.8438 1266.44 40.5781ZM1356.2 25.5781C1349.48 25.5781 1344.33 28.6641 1340.73 34.8359C1337.22 40.9297 1335.46 48.3125 1335.46 56.9844C1335.46 62.8438 1336.24 68.4297 1337.8 73.7422C1339.45 79.0547 1342.18 83.6641 1346.01 87.5703C1349.84 91.3984 1354.45 93.3125 1359.84 93.3125C1366.48 93.3125 1371.59 90.2266 1375.19 84.0547C1378.86 77.8047 1380.7 70.3828 1380.7 61.7891C1380.7 55.7734 1379.91 50.1484 1378.35 44.9141C1376.79 39.6016 1374.09 35.0703 1370.27 31.3203C1366.44 27.4922 1361.75 25.5781 1356.2 25.5781ZM1331.48 87.5703C1324.13 79.8359 1320.46 70.5 1320.46 59.5625C1320.46 48.625 1324.13 39.2891 1331.48 31.5547C1338.82 23.7422 1347.65 19.8359 1357.96 19.8359C1368.27 19.8359 1377.1 23.7422 1384.45 31.5547C1391.87 39.2891 1395.58 48.625 1395.58 59.5625C1395.58 70.5 1391.87 79.8359 1384.45 87.5703C1377.1 95.3047 1368.27 99.1719 1357.96 99.1719C1347.65 99.1719 1338.82 95.3047 1331.48 87.5703ZM1465.66 36.7109C1465.66 32.5703 1465.27 29.4453 1464.48 27.3359C1464.09 26.3984 1462.77 25.6562 1460.5 25.1094C1458.31 24.5625 1456.59 24.2891 1455.34 24.2891C1455.03 24.2891 1454.84 23.7422 1454.76 22.6484C1454.76 21.4766 1454.88 20.7344 1455.11 20.4219C1463.47 20.9687 1468.39 21.2422 1469.88 21.2422C1471.91 21.2422 1474.52 21.125 1477.73 20.8906C1480.93 20.5781 1482.92 20.4219 1483.7 20.4219C1483.86 20.7344 1483.94 21.3594 1483.94 22.2969C1483.94 23.625 1483.78 24.2891 1483.47 24.2891C1482.38 24.2891 1480.7 24.6016 1478.43 25.2266C1476.16 25.7734 1474.68 26.5547 1473.98 27.5703C1473.12 29.6797 1472.69 32.9219 1472.69 37.2969V81.7109C1472.69 84.5234 1472.84 89.9922 1473.16 98.1172C1472.84 98.4297 1471.98 98.5859 1470.58 98.5859C1469.33 98.5859 1468.08 97.6875 1466.83 95.8906L1420.19 34.0156V81.4766C1420.19 86.1641 1420.5 89.3672 1421.12 91.0859C1421.52 92.0234 1422.96 92.8438 1425.46 93.5469C1427.96 94.1719 1429.72 94.4844 1430.73 94.4844C1430.97 94.4844 1431.09 95.0312 1431.09 96.125C1431.16 97.2188 1431.12 97.9609 1430.97 98.3516C1421.59 97.8828 1416.71 97.6484 1416.32 97.6484C1414.21 97.6484 1411.59 97.7656 1408.47 98C1405.42 98.1562 1403.39 98.2734 1402.38 98.3516C1402.06 98.0391 1401.91 97.375 1401.91 96.3594C1401.91 95.1094 1402.06 94.4844 1402.38 94.4844C1403.7 94.4844 1405.46 94.2109 1407.65 93.6641C1409.91 93.0391 1411.36 92.1406 1411.98 90.9688C1412.77 89.3281 1413.16 86.0469 1413.16 81.125V35.1875C1413.16 30.9688 1412.73 28.1172 1411.87 26.6328C1411.55 26.0859 1410.19 25.5781 1407.77 25.1094C1405.42 24.6406 1403.7 24.4062 1402.61 24.4062C1402.3 24.4062 1402.1 23.8203 1402.02 22.6484C1402.02 21.4766 1402.18 20.7344 1402.49 20.4219C1410.7 20.8125 1415.34 21.0078 1416.44 21.0078C1419.02 21.0078 1422.53 20.8125 1426.98 20.4219C1428.47 23.2344 1431.16 27.4141 1435.07 32.9609C1439.05 38.4297 1444.48 45.6953 1451.36 54.7578C1458.23 63.7422 1462.92 69.9531 1465.42 73.3906C1465.58 72.4531 1465.66 70.8516 1465.66 68.5859V36.7109Z" fill="#3E4355"/>
<path d="M260.068 206V152.46H268.82V198.493H291.489V206H260.068ZM331.365 206.732C325.066 206.732 320.134 204.901 316.57 201.239C313.03 197.553 311.26 192.487 311.26 186.042C311.26 179.425 312.908 174.225 316.204 170.441C319.5 166.657 324.028 164.765 329.79 164.765C335.137 164.765 339.36 166.388 342.461 169.635C345.562 172.882 347.112 177.35 347.112 183.039V187.689H320.122C320.244 191.62 321.306 194.647 323.308 196.771C325.31 198.871 328.13 199.921 331.768 199.921C334.16 199.921 336.382 199.701 338.433 199.262C340.508 198.798 342.729 198.041 345.098 196.991V203.986C342.998 204.987 340.874 205.695 338.726 206.11C336.577 206.525 334.124 206.732 331.365 206.732ZM329.79 171.283C327.056 171.283 324.858 172.15 323.198 173.883C321.562 175.617 320.586 178.144 320.269 181.464H338.652C338.604 178.119 337.798 175.592 336.235 173.883C334.673 172.15 332.524 171.283 329.79 171.283ZM404.969 165.497V170.221L398.047 171.503C398.682 172.357 399.207 173.407 399.622 174.652C400.037 175.897 400.245 177.216 400.245 178.607C400.245 182.782 398.804 186.066 395.923 188.458C393.042 190.851 389.075 192.047 384.021 192.047C382.728 192.047 381.556 191.95 380.506 191.754C378.65 192.902 377.723 194.245 377.723 195.783C377.723 196.71 378.15 197.406 379.004 197.87C379.883 198.334 381.482 198.566 383.802 198.566H390.87C395.337 198.566 398.731 199.518 401.05 201.422C403.37 203.327 404.529 206.073 404.529 209.662C404.529 214.252 402.637 217.792 398.853 220.282C395.069 222.772 389.6 224.018 382.447 224.018C376.929 224.018 372.718 223.041 369.812 221.088C366.907 219.135 365.455 216.352 365.455 212.738C365.455 210.248 366.236 208.148 367.798 206.439C369.385 204.755 371.595 203.583 374.427 202.924C373.279 202.436 372.327 201.654 371.57 200.58C370.838 199.481 370.472 198.334 370.472 197.138C370.472 195.624 370.899 194.342 371.753 193.292C372.608 192.243 373.877 191.205 375.562 190.18C373.462 189.276 371.753 187.812 370.435 185.785C369.141 183.734 368.494 181.342 368.494 178.607C368.494 174.213 369.874 170.807 372.632 168.39C375.416 165.973 379.371 164.765 384.498 164.765C385.645 164.765 386.841 164.85 388.086 165.021C389.356 165.167 390.308 165.326 390.943 165.497H404.969ZM373.145 212.299C373.145 214.154 373.975 215.583 375.635 216.583C377.32 217.584 379.676 218.085 382.703 218.085C387.391 218.085 390.882 217.414 393.177 216.071C395.472 214.728 396.619 212.946 396.619 210.724C396.619 208.966 395.984 207.709 394.715 206.952C393.47 206.22 391.138 205.854 387.72 205.854H381.202C378.736 205.854 376.771 206.427 375.306 207.575C373.865 208.747 373.145 210.321 373.145 212.299ZM376.844 178.607C376.844 181.146 377.491 183.1 378.785 184.467C380.103 185.834 381.983 186.518 384.424 186.518C389.405 186.518 391.895 183.856 391.895 178.534C391.895 175.897 391.272 173.871 390.027 172.455C388.807 171.015 386.939 170.294 384.424 170.294C381.934 170.294 380.042 171.002 378.748 172.418C377.479 173.834 376.844 175.897 376.844 178.607ZM451.729 206L450.008 200.36H449.715C447.762 202.826 445.797 204.511 443.819 205.414C441.842 206.293 439.303 206.732 436.202 206.732C432.223 206.732 429.11 205.658 426.864 203.51C424.642 201.361 423.531 198.322 423.531 194.391C423.531 190.216 425.082 187.067 428.182 184.943C431.283 182.819 436.007 181.659 442.354 181.464L449.349 181.244V179.083C449.349 176.496 448.739 174.567 447.518 173.297C446.322 172.003 444.454 171.356 441.915 171.356C439.84 171.356 437.85 171.662 435.946 172.272C434.042 172.882 432.21 173.603 430.453 174.433L427.669 168.28C429.867 167.133 432.271 166.266 434.884 165.68C437.496 165.07 439.962 164.765 442.281 164.765C447.433 164.765 451.314 165.888 453.927 168.134C456.563 170.38 457.882 173.908 457.882 178.717V206H451.729ZM438.912 200.141C442.037 200.141 444.54 199.274 446.419 197.541C448.324 195.783 449.276 193.329 449.276 190.18V186.664L444.076 186.884C440.023 187.03 437.069 187.714 435.213 188.935C433.382 190.131 432.467 191.974 432.467 194.464C432.467 196.271 433.004 197.675 434.078 198.676C435.152 199.652 436.764 200.141 438.912 200.141ZM492.375 206H483.769V149.018H492.375V206ZM579.158 194.464C579.158 198.419 577.717 201.459 574.836 203.583C571.956 205.683 567.83 206.732 562.458 206.732C557.063 206.732 552.729 205.915 549.458 204.279V196.845C554.219 199.042 558.65 200.141 562.751 200.141C568.049 200.141 570.698 198.542 570.698 195.343C570.698 194.318 570.405 193.463 569.819 192.78C569.233 192.096 568.269 191.388 566.926 190.656C565.583 189.923 563.716 189.093 561.323 188.166C556.66 186.359 553.499 184.552 551.838 182.746C550.203 180.939 549.385 178.595 549.385 175.714C549.385 172.248 550.776 169.562 553.56 167.658C556.367 165.729 560.176 164.765 564.985 164.765C569.746 164.765 574.25 165.729 578.499 167.658L575.715 174.14C571.345 172.333 567.671 171.43 564.692 171.43C560.151 171.43 557.881 172.724 557.881 175.312C557.881 176.581 558.467 177.655 559.639 178.534C560.835 179.413 563.423 180.622 567.402 182.16C570.747 183.454 573.176 184.638 574.69 185.712C576.204 186.786 577.327 188.031 578.059 189.447C578.792 190.839 579.158 192.511 579.158 194.464ZM620.059 206.732C613.76 206.732 608.829 204.901 605.264 201.239C601.724 197.553 599.954 192.487 599.954 186.042C599.954 179.425 601.602 174.225 604.898 170.441C608.194 166.657 612.723 164.765 618.484 164.765C623.831 164.765 628.055 166.388 631.155 169.635C634.256 172.882 635.806 177.35 635.806 183.039V187.689H608.816C608.938 191.62 610 194.647 612.002 196.771C614.004 198.871 616.824 199.921 620.462 199.921C622.854 199.921 625.076 199.701 627.127 199.262C629.202 198.798 631.424 198.041 633.792 196.991V203.986C631.692 204.987 629.568 205.695 627.42 206.11C625.271 206.525 622.818 206.732 620.059 206.732ZM618.484 171.283C615.75 171.283 613.553 172.15 611.893 173.883C610.257 175.617 609.28 178.144 608.963 181.464H627.347C627.298 178.119 626.492 175.592 624.93 173.883C623.367 172.15 621.219 171.283 618.484 171.283ZM680.003 164.765C681.737 164.765 683.165 164.887 684.288 165.131L683.446 173.151C682.225 172.858 680.956 172.711 679.637 172.711C676.195 172.711 673.399 173.834 671.251 176.081C669.127 178.327 668.065 181.244 668.065 184.833V206H659.459V165.497H666.197L667.333 172.638H667.772C669.115 170.221 670.86 168.305 673.009 166.889C675.182 165.473 677.513 164.765 680.003 164.765ZM714.936 206L699.555 165.497H708.637L716.876 189.044C718.292 193 719.147 196.198 719.44 198.639H719.733C719.953 196.881 720.807 193.683 722.296 189.044L730.536 165.497H739.691L724.237 206H714.936ZM768.325 206H759.719V165.497H768.325V206ZM759.206 154.767C759.206 153.229 759.621 152.045 760.451 151.215C761.306 150.385 762.514 149.97 764.077 149.97C765.59 149.97 766.762 150.385 767.592 151.215C768.447 152.045 768.874 153.229 768.874 154.767C768.874 156.232 768.447 157.392 767.592 158.246C766.762 159.076 765.59 159.491 764.077 159.491C762.514 159.491 761.306 159.076 760.451 158.246C759.621 157.392 759.206 156.232 759.206 154.767ZM810.874 206.732C804.746 206.732 800.083 204.95 796.885 201.386C793.711 197.797 792.124 192.658 792.124 185.968C792.124 179.157 793.784 173.92 797.104 170.258C800.449 166.596 805.271 164.765 811.57 164.765C815.842 164.765 819.688 165.558 823.105 167.145L820.505 174.066C816.868 172.65 813.865 171.942 811.497 171.942C804.49 171.942 800.986 176.593 800.986 185.895C800.986 190.436 801.853 193.854 803.586 196.149C805.344 198.419 807.908 199.555 811.277 199.555C815.11 199.555 818.735 198.603 822.153 196.698V204.206C820.615 205.109 818.967 205.756 817.209 206.146C815.476 206.537 813.364 206.732 810.874 206.732ZM863.238 206.732C856.939 206.732 852.007 204.901 848.443 201.239C844.903 197.553 843.133 192.487 843.133 186.042C843.133 179.425 844.781 174.225 848.077 170.441C851.373 166.657 855.901 164.765 861.663 164.765C867.01 164.765 871.233 166.388 874.334 169.635C877.435 172.882 878.985 177.35 878.985 183.039V187.689H851.995C852.117 191.62 853.179 194.647 855.181 196.771C857.183 198.871 860.003 199.921 863.641 199.921C866.033 199.921 868.255 199.701 870.306 199.262C872.381 198.798 874.603 198.041 876.971 196.991V203.986C874.871 204.987 872.747 205.695 870.599 206.11C868.45 206.525 865.997 206.732 863.238 206.732ZM861.663 171.283C858.929 171.283 856.731 172.15 855.071 173.883C853.436 175.617 852.459 178.144 852.142 181.464H870.525C870.477 178.119 869.671 175.592 868.108 173.883C866.546 172.15 864.397 171.283 861.663 171.283ZM929.847 194.464C929.847 198.419 928.407 201.459 925.526 203.583C922.645 205.683 918.519 206.732 913.148 206.732C907.752 206.732 903.419 205.915 900.147 204.279V196.845C904.908 199.042 909.339 200.141 913.441 200.141C918.739 200.141 921.388 198.542 921.388 195.343C921.388 194.318 921.095 193.463 920.509 192.78C919.923 192.096 918.958 191.388 917.616 190.656C916.273 189.923 914.405 189.093 912.013 188.166C907.35 186.359 904.188 184.552 902.528 182.746C900.892 180.939 900.074 178.595 900.074 175.714C900.074 172.248 901.466 169.562 904.249 167.658C907.057 165.729 910.865 164.765 915.675 164.765C920.436 164.765 924.94 165.729 929.188 167.658L926.405 174.14C922.035 172.333 918.36 171.43 915.382 171.43C910.841 171.43 908.57 172.724 908.57 175.312C908.57 176.581 909.156 177.655 910.328 178.534C911.524 179.413 914.112 180.622 918.092 182.16C921.437 183.454 923.866 184.638 925.379 185.712C926.893 186.786 928.016 188.031 928.749 189.447C929.481 190.839 929.847 192.511 929.847 194.464ZM995.024 206H986.418V165.497H995.024V206ZM985.905 154.767C985.905 153.229 986.32 152.045 987.15 151.215C988.005 150.385 989.213 149.97 990.776 149.97C992.29 149.97 993.461 150.385 994.292 151.215C995.146 152.045 995.573 153.229 995.573 154.767C995.573 156.232 995.146 157.392 994.292 158.246C993.461 159.076 992.29 159.491 990.776 159.491C989.213 159.491 988.005 159.076 987.15 158.246C986.32 157.392 985.905 156.232 985.905 154.767ZM1056.87 206H1048.23V181.098C1048.23 177.973 1047.6 175.641 1046.33 174.103C1045.08 172.565 1043.09 171.796 1040.36 171.796C1036.72 171.796 1034.06 172.87 1032.37 175.019C1030.69 177.167 1029.85 180.768 1029.85 185.822V206H1021.24V165.497H1027.98L1029.19 170.807H1029.63C1030.85 168.878 1032.58 167.389 1034.83 166.339C1037.07 165.29 1039.56 164.765 1042.3 164.765C1052.01 164.765 1056.87 169.708 1056.87 179.596V206ZM1131.17 199.774C1133.27 199.774 1135.37 199.445 1137.47 198.786V205.268C1136.51 205.683 1135.28 206.024 1133.77 206.293C1132.28 206.586 1130.73 206.732 1129.12 206.732C1120.96 206.732 1116.89 202.436 1116.89 193.842V172.016H1111.36V168.207L1117.29 165.058L1120.22 156.488H1125.53V165.497H1137.06V172.016H1125.53V193.695C1125.53 195.771 1126.04 197.309 1127.07 198.31C1128.12 199.286 1129.48 199.774 1131.17 199.774ZM1195.1 206H1186.46V181.098C1186.46 177.973 1185.83 175.641 1184.56 174.103C1183.31 172.565 1181.32 171.796 1178.59 171.796C1174.97 171.796 1172.31 172.882 1170.6 175.055C1168.92 177.204 1168.08 180.817 1168.08 185.895V206H1159.47V149.018H1168.08V163.483C1168.08 165.802 1167.93 168.28 1167.64 170.917H1168.19C1169.36 168.964 1170.98 167.45 1173.06 166.376C1175.16 165.302 1177.6 164.765 1180.38 164.765C1190.2 164.765 1195.1 169.708 1195.1 179.596V206ZM1238.64 206.732C1232.34 206.732 1227.41 204.901 1223.85 201.239C1220.31 197.553 1218.54 192.487 1218.54 186.042C1218.54 179.425 1220.19 174.225 1223.48 170.441C1226.78 166.657 1231.31 164.765 1237.07 164.765C1242.41 164.765 1246.64 166.388 1249.74 169.635C1252.84 172.882 1254.39 177.35 1254.39 183.039V187.689H1227.4C1227.52 191.62 1228.58 194.647 1230.59 196.771C1232.59 198.871 1235.41 199.921 1239.04 199.921C1241.44 199.921 1243.66 199.701 1245.71 199.262C1247.79 198.798 1250.01 198.041 1252.38 196.991V203.986C1250.28 204.987 1248.15 205.695 1246 206.11C1243.85 206.525 1241.4 206.732 1238.64 206.732ZM1237.07 171.283C1234.33 171.283 1232.14 172.15 1230.48 173.883C1228.84 175.617 1227.86 178.144 1227.55 181.464H1245.93C1245.88 178.119 1245.08 175.592 1243.51 173.883C1241.95 172.15 1239.8 171.283 1237.07 171.283ZM1354.28 152.46V187.104C1354.28 191.059 1353.43 194.525 1351.72 197.504C1350.03 200.458 1347.58 202.741 1344.36 204.352C1341.16 205.939 1337.33 206.732 1332.86 206.732C1326.22 206.732 1321.06 204.975 1317.37 201.459C1313.68 197.943 1311.84 193.109 1311.84 186.957V152.46H1320.63V186.334C1320.63 190.753 1321.65 194.013 1323.7 196.112C1325.75 198.212 1328.9 199.262 1333.15 199.262C1341.4 199.262 1345.53 194.928 1345.53 186.261V152.46H1354.28ZM1412.73 191.461C1412.73 196.222 1411 199.958 1407.56 202.667C1404.12 205.377 1399.37 206.732 1393.32 206.732C1387.26 206.732 1382.31 205.792 1378.45 203.913V195.636C1380.89 196.784 1383.48 197.687 1386.21 198.346C1388.97 199.005 1391.53 199.335 1393.9 199.335C1397.37 199.335 1399.92 198.676 1401.56 197.357C1403.22 196.039 1404.05 194.269 1404.05 192.047C1404.05 190.045 1403.29 188.349 1401.78 186.957C1400.26 185.565 1397.14 183.917 1392.4 182.013C1387.52 180.036 1384.08 177.777 1382.07 175.238C1380.07 172.699 1379.07 169.647 1379.07 166.083C1379.07 161.615 1380.66 158.1 1383.83 155.536C1387.01 152.973 1391.27 151.691 1396.61 151.691C1401.74 151.691 1406.84 152.814 1411.92 155.06L1409.14 162.201C1404.38 160.199 1400.13 159.198 1396.39 159.198C1393.56 159.198 1391.41 159.821 1389.95 161.066C1388.48 162.287 1387.75 163.91 1387.75 165.937C1387.75 167.328 1388.04 168.524 1388.63 169.525C1389.21 170.502 1390.18 171.43 1391.52 172.309C1392.86 173.188 1395.28 174.347 1398.77 175.788C1402.7 177.423 1405.58 178.949 1407.42 180.365C1409.25 181.781 1410.59 183.38 1411.44 185.163C1412.3 186.945 1412.73 189.044 1412.73 191.461ZM1470.18 206L1464.83 191.132H1444.36L1439.12 206H1429.9L1449.93 152.24H1459.45L1479.48 206H1470.18ZM1462.53 183.588L1457.51 169.013C1457.14 168.036 1456.63 166.498 1455.97 164.398C1455.34 162.299 1454.9 160.761 1454.65 159.784C1453.99 162.787 1453.03 166.071 1451.76 169.635L1446.93 183.588H1462.53Z" fill="#3E4355" fill-opacity="0.6"/>
<path d="M173.647 90.9614C171.625 88.9402 168.64 88.4565 166.157 89.5101L161.059 84.4133L161.171 84.3017C162.037 83.4356 162.514 82.2839 162.514 81.0596C162.514 79.8347 162.037 78.683 161.171 77.8172L134.502 51.1481C133.484 50.13 131.832 50.13 130.814 51.1481C129.796 52.1669 129.796 53.8178 130.814 54.8362L157.037 81.0593C153.929 84.1682 152.055 86.042 120.884 117.213C114.019 110.347 123.599 119.928 80.7866 77.1155C89.6883 68.2141 108.157 49.745 116.94 40.9618L122.012 46.0346C123.03 47.0527 124.682 47.0527 125.7 46.0346C126.718 45.0158 126.718 43.3649 125.7 42.3468L120.182 36.8282C118.394 35.0406 115.485 35.0403 113.697 36.8282L113.586 36.9398L108.492 31.8459C109.531 29.4084 109.098 26.4132 107.037 24.3523L104.682 21.9973C103.395 20.7093 101.683 20 99.8621 20C98.0411 20 96.3293 20.7093 95.0421 21.9966L61.8213 55.2173C60.5337 56.5049 59.8247 58.2167 59.8247 60.0373C59.8247 61.8579 60.5341 63.5697 61.8213 64.8573L64.1767 67.2124C65.4643 68.4999 67.1761 69.2093 68.997 69.2093C69.931 69.2093 70.8364 69.0225 71.6706 68.6668L76.7649 73.7612L76.6537 73.8724C75.7875 74.7382 75.3104 75.8899 75.3104 77.1148C75.3104 78.3391 75.7875 79.4908 76.6537 80.3573L90.3622 94.0658L82.8805 101.548L82.5999 101.267C81.6805 100.347 80.458 99.8406 79.1575 99.8406C77.8571 99.8406 76.6345 100.347 75.7155 101.267L71.1915 105.791C69.5673 107.415 69.3566 109.853 70.4234 111.681L65.3349 116.272C64.2657 117.237 64.1809 118.886 65.1458 119.955C66.111 121.025 67.7595 121.109 68.8291 120.145L73.9975 115.481L82.5189 124.002L23.606 189.296C19.5962 193.741 12.628 194.006 8.31084 189.688C4.05067 185.429 4.19879 178.458 8.70341 174.394L59.7006 128.38C60.7698 127.416 60.8547 125.766 59.8898 124.697C58.9252 123.629 57.276 123.543 56.2064 124.508L5.20959 170.521C-1.4717 176.55 -1.7902 186.963 4.623 193.376C10.99 199.744 21.405 199.521 27.4785 192.79L86.319 127.575C88.1901 128.662 90.6206 128.395 92.2075 126.809L96.732 122.284C97.6513 121.365 98.1579 120.142 98.1579 118.842C98.1579 117.542 97.6513 116.32 96.732 115.4L96.451 115.119L103.933 107.638L117.642 121.347C119.43 123.134 122.338 123.134 124.126 121.347L124.238 121.235L129.334 126.332C128.281 128.815 128.765 131.801 130.786 133.822L133.141 136.178C135.8 138.835 140.123 138.835 142.781 136.178L176.002 102.957C178.66 100.299 178.66 95.9748 176.002 93.3165L173.647 90.9614ZM67.8649 63.5252L65.5091 61.1695C64.8836 60.5443 64.8833 59.5314 65.5091 58.9059L98.7303 25.6847C99.3565 25.0589 100.368 25.0589 100.994 25.6851L103.35 28.0405C103.975 28.6657 103.976 29.6786 103.35 30.3041C103.064 30.5899 70.1636 63.4904 70.1288 63.5252C69.5023 64.1511 68.4908 64.1504 67.8649 63.5252ZM75.7044 65.3257L105.15 35.88L109.898 40.628L80.4524 70.0737L75.7044 65.3257ZM88.7659 122.875C88.7047 122.814 75.1595 109.268 75.1244 109.234L79.1568 105.201C80.8843 106.929 90.8042 116.848 92.7983 118.842L88.7659 122.875ZM92.7628 111.431L86.5676 105.236L94.0494 97.7547L100.245 103.95L92.7628 111.431ZM157.371 88.1012L162.119 92.8492L132.674 122.295L127.926 117.547L157.371 88.1012ZM172.315 99.2693L139.094 132.49C138.47 133.115 137.454 133.115 136.83 132.49L134.474 130.135C133.85 129.511 133.85 128.495 134.474 127.871L134.511 127.834C192.403 69.9419 135.711 126.634 167.695 94.65C168.32 94.0258 169.335 94.0262 169.959 94.65L172.314 97.005C172.939 97.6295 172.939 98.6452 172.315 99.2693Z" fill="#C39167"/>
<path d="M86.422 180.922V181.962H85.9179C80.8625 181.962 76.7497 186.075 76.7497 191.13V194.508C76.7497 196.432 78.3155 197.998 80.2401 197.998H174.507C176.432 197.998 177.998 196.432 177.998 194.508V191.13C177.998 186.075 173.885 181.962 168.829 181.962H168.326V180.922C168.326 174.344 164.79 168.575 159.519 165.418C160.579 164.143 161.217 162.506 161.217 160.722C161.217 156.666 157.917 153.366 153.86 153.366H100.887C96.8308 153.366 93.531 156.666 93.531 160.722C93.531 162.506 94.1691 164.143 95.2289 165.418C89.9576 168.575 86.422 174.344 86.422 180.922ZM163.11 180.922V181.962H159.052C157.612 181.962 156.444 183.129 156.444 184.57C156.444 186.01 157.612 187.178 159.052 187.178H168.829C171.009 187.178 172.782 188.951 172.782 191.13V192.782H81.9654V191.13C81.9654 188.95 83.7384 187.178 85.9179 187.178H146.882C148.322 187.178 149.49 186.01 149.49 184.57C149.49 183.129 148.322 181.962 146.882 181.962H91.6377V180.922C91.6377 173.84 97.3993 168.079 104.482 168.079H150.266C157.348 168.078 163.11 173.84 163.11 180.922ZM100.887 162.863C99.7067 162.863 98.7467 161.902 98.7467 160.722C98.7467 159.543 99.7067 158.582 100.887 158.582H153.861C155.041 158.582 156.001 159.543 156.001 160.722C156.001 161.902 155.041 162.863 153.861 162.863H100.887Z" fill="#C39167"/>
</svg>
