<svg width="512" height="512" viewBox="0 0 512 512" fill="none" xmlns="http://www.w3.org/2000/svg">
<path d="M340 456H372V504H340V456Z" fill="#F5F5F5" fill-opacity="0.6"/>
<path d="M356 322.848L280.56 392H431.44L356 322.848Z" fill="#F5F5F5" fill-opacity="0.6"/>
<path d="M412 408H300V504H324V448C324 445.878 324.843 443.843 326.343 442.343C327.843 440.843 329.878 440 332 440H380C382.122 440 384.157 440.843 385.657 442.343C387.157 443.843 388 445.878 388 448V504H412V408Z" fill="#F5F5F5" fill-opacity="0.6"/>
<path d="M476 128H460V152C460 158.365 457.471 164.47 452.971 168.971C448.47 173.471 442.365 176 436 176H276C269.635 176 263.53 173.471 259.029 168.971C254.529 164.47 252 158.365 252 152V128H236C229.635 128 223.53 130.529 219.029 135.029C214.529 139.53 212 145.635 212 152V480C212 486.365 214.529 492.47 219.029 496.971C223.53 501.471 229.635 504 236 504H284V408H260C258.388 408 256.814 407.513 255.483 406.604C254.153 405.694 253.128 404.403 252.544 402.901C251.959 401.399 251.842 399.756 252.208 398.186C252.573 396.616 253.404 395.193 254.592 394.104L350.592 306.104C352.068 304.75 353.997 303.999 356 303.999C358.003 303.999 359.932 304.75 361.408 306.104L457.408 394.104C458.596 395.193 459.427 396.616 459.792 398.186C460.158 399.756 460.041 401.399 459.456 402.901C458.872 404.403 457.847 405.694 456.517 406.604C455.186 407.513 453.612 408 452 408H428V504H476C482.365 504 488.47 501.471 492.971 496.971C497.471 492.47 500 486.365 500 480V152C500 145.635 497.471 139.53 492.971 135.029C488.47 130.529 482.365 128 476 128ZM452 272H260C257.878 272 255.843 271.157 254.343 269.657C252.843 268.157 252 266.122 252 264C252 261.878 252.843 259.843 254.343 258.343C255.843 256.843 257.878 256 260 256H452C454.122 256 456.157 256.843 457.657 258.343C459.157 259.843 460 261.878 460 264C460 266.122 459.157 268.157 457.657 269.657C456.157 271.157 454.122 272 452 272ZM452 224H260C257.878 224 255.843 223.157 254.343 221.657C252.843 220.157 252 218.122 252 216C252 213.878 252.843 211.843 254.343 210.343C255.843 208.843 257.878 208 260 208H452C454.122 208 456.157 208.843 457.657 210.343C459.157 211.843 460 213.878 460 216C460 218.122 459.157 220.157 457.657 221.657C456.157 223.157 454.122 224 452 224Z" fill="#F5F5F5" fill-opacity="0.6"/>
<path d="M268 152C268 154.122 268.843 156.157 270.343 157.657C271.843 159.157 273.878 160 276 160H436C438.122 160 440.157 159.157 441.657 157.657C443.157 156.157 444 154.122 444 152V128H386.984C385.211 121.131 381.205 115.046 375.596 110.701C369.988 106.357 363.094 104 356 104C348.906 104 342.012 106.357 336.404 110.701C330.795 115.046 326.789 121.131 325.016 128H268V152Z" fill="#F5F5F5" fill-opacity="0.6"/>
<path d="M340 71.9998H334.504C306.849 72.075 279.454 66.6643 253.904 56.0811C228.355 45.4978 205.158 29.9521 185.656 10.3438C184.156 8.84399 182.121 8.00146 180 8.00146C177.879 8.00146 175.844 8.84399 174.344 10.3438C154.843 29.9521 131.646 45.4978 106.096 56.0811C80.546 66.6643 53.1509 72.075 25.496 71.9998H20C17.8783 71.9998 15.8435 72.8426 14.3432 74.3429C12.8429 75.8432 12 77.878 12 79.9998V163.672C11.8291 216.18 27.4822 267.521 56.9187 311.002C86.3551 354.483 128.209 388.087 177.024 407.432C178.935 408.192 181.065 408.192 182.976 407.432C231.79 388.086 273.644 354.482 303.08 311.001C332.516 267.52 348.17 216.179 348 163.672V79.9998C348 77.878 347.157 75.8432 345.657 74.3429C344.157 72.8426 342.122 71.9998 340 71.9998ZM332 163.672C332.161 212.433 317.787 260.135 290.714 300.69C263.64 341.245 225.096 372.811 180 391.36C134.905 372.811 96.3597 341.245 69.2862 300.69C42.2127 260.135 27.839 212.433 28 163.672V87.9998C84.5138 87.5281 138.779 65.7992 180 27.1358C221.221 65.7992 275.486 87.5281 332 87.9998V163.672Z" fill="#C39167"/>
<path d="M175.2 62.3998C141.135 87.8688 101.114 104.187 58.952 109.8C57.0291 110.054 55.2639 110.998 53.9851 112.456C52.7062 113.915 52.0008 115.788 52 117.728V163.672C51.7934 205.324 63.3726 246.185 85.4005 281.537C107.428 316.888 139.007 345.288 176.488 363.456C177.582 363.99 178.783 364.268 180 364.268C181.217 364.268 182.418 363.99 183.512 363.456C220.994 345.288 252.572 316.888 274.6 281.537C296.627 246.185 308.207 205.324 308 163.672V117.728C308 115.789 307.295 113.917 306.018 112.459C304.741 111.001 302.978 110.056 301.056 109.8C258.892 104.189 218.867 87.87 184.8 62.3998C183.415 61.3612 181.731 60.7998 180 60.7998C178.269 60.7998 176.585 61.3612 175.2 62.3998ZM172 342.872C126.16 316.995 92.0939 274.405 76.92 224H172V342.872ZM172 208H72.744C69.5939 193.434 68.0036 178.574 68 163.672V124.648C105.151 118.659 140.603 104.832 172 84.0878V208ZM188 84.0878C219.397 104.832 254.849 118.659 292 124.648V163.672C291.997 178.574 290.406 193.434 287.256 208H188V84.0878ZM188 224H283.08C267.906 274.405 233.84 316.995 188 342.872V224Z" fill="#C39167"/>
</svg>
