<svg width="512" height="512" viewBox="0 0 512 512" fill="none" xmlns="http://www.w3.org/2000/svg">
<path d="M216 392H392V216H216V392ZM304 240C316.756 239.982 329.224 243.792 339.792 250.936C340.662 251.524 341.408 252.278 341.987 253.155C342.566 254.032 342.967 255.014 343.167 256.045C343.366 257.077 343.36 258.137 343.15 259.167C342.939 260.196 342.528 261.174 341.94 262.044C341.352 262.914 340.598 263.66 339.721 264.239C338.844 264.818 337.862 265.219 336.831 265.419C335.799 265.618 334.739 265.612 333.709 265.402C332.68 265.191 331.702 264.78 330.832 264.192C324.61 260 317.492 257.325 310.049 256.381C302.606 255.438 295.045 256.252 287.974 258.759C280.903 261.265 274.517 265.395 269.33 270.816C264.144 276.236 260.3 282.798 258.107 289.973C255.915 297.148 255.435 304.737 256.705 312.131C257.976 319.525 260.963 326.518 265.425 332.549C269.888 338.581 275.702 343.482 282.401 346.86C289.1 350.238 296.497 351.998 304 352C309.527 352.213 315.029 351.156 320.084 348.911C325.139 346.666 329.612 343.292 333.16 339.048C333.826 338.215 334.653 337.524 335.59 337.016C336.527 336.507 337.557 336.191 338.618 336.086C339.68 335.981 340.751 336.089 341.77 336.404C342.789 336.719 343.735 337.235 344.551 337.921C345.368 338.607 346.039 339.45 346.526 340.399C347.012 341.348 347.304 342.385 347.383 343.448C347.463 344.512 347.33 345.58 346.99 346.592C346.651 347.603 346.113 348.536 345.408 349.336C343.759 351.308 341.968 353.155 340.048 354.864C330.084 363.573 317.231 368.257 304 368C287.026 368 270.748 361.257 258.745 349.255C246.743 337.252 240 320.974 240 304C240 287.026 246.743 270.748 258.745 258.745C270.748 246.743 287.026 240 304 240Z" fill="#F5F5F5" fill-opacity="0.6"/>
<path d="M304 104C264.444 104 225.776 115.73 192.886 137.706C159.996 159.682 134.362 190.918 119.224 227.463C104.087 264.009 100.126 304.222 107.843 343.018C115.56 381.814 134.608 417.451 162.579 445.421C190.549 473.392 226.186 492.44 264.982 500.157C303.778 507.874 343.992 503.913 380.537 488.776C417.082 473.638 448.318 448.004 470.294 415.114C492.27 382.224 504 343.556 504 304C503.941 250.975 482.85 200.139 445.356 162.644C407.862 125.15 357.025 104.059 304 104ZM408 400C408 402.122 407.157 404.157 405.657 405.657C404.157 407.157 402.122 408 400 408H208C205.878 408 203.844 407.157 202.343 405.657C200.843 404.157 200 402.122 200 400V208C200 205.878 200.843 203.843 202.343 202.343C203.844 200.843 205.878 200 208 200H400C402.122 200 404.157 200.843 405.657 202.343C407.157 203.843 408 205.878 408 208V400Z" fill="#F5F5F5" fill-opacity="0.6"/>
<path d="M288 8H32C25.6348 8 19.5303 10.5286 15.0294 15.0294C10.5286 19.5303 8 25.6348 8 32V336C8 342.365 10.5286 348.47 15.0294 352.971C19.5303 357.471 25.6348 360 32 360H288C294.365 360 300.47 357.471 304.971 352.971C309.471 348.47 312 342.365 312 336V32C312 25.6348 309.471 19.5303 304.971 15.0294C300.47 10.5286 294.365 8 288 8ZM176 24H256V147.056L219.576 128.84C218.466 128.285 217.241 127.996 216 127.996C214.759 127.996 213.534 128.285 212.424 128.84L176 147.056V24ZM296 336C296 338.122 295.157 340.157 293.657 341.657C292.157 343.157 290.122 344 288 344H32C29.8783 344 27.8434 343.157 26.3431 341.657C24.8429 340.157 24 338.122 24 336V32C24 29.8783 24.8429 27.8434 26.3431 26.3431C27.8434 24.8429 29.8783 24 32 24H160V160C159.999 161.364 160.347 162.705 161.011 163.897C161.675 165.088 162.632 166.09 163.792 166.807C164.952 167.525 166.276 167.934 167.638 167.996C169 168.057 170.356 167.77 171.576 167.16L216 144.944L260.424 167.2C261.647 167.811 263.006 168.099 264.372 168.035C265.738 167.972 267.064 167.559 268.225 166.837C269.386 166.115 270.343 165.107 271.004 163.91C271.664 162.713 272.007 161.367 272 160V24H288C290.122 24 292.157 24.8429 293.657 26.3431C295.157 27.8434 296 29.8783 296 32V336Z" fill="#C39167"/>
<path d="M56 72H128C130.122 72 132.157 71.1571 133.657 69.6569C135.157 68.1566 136 66.1217 136 64C136 61.8783 135.157 59.8434 133.657 58.3431C132.157 56.8429 130.122 56 128 56H56C53.8783 56 51.8434 56.8429 50.3431 58.3431C48.8429 59.8434 48 61.8783 48 64C48 66.1217 48.8429 68.1566 50.3431 69.6569C51.8434 71.1571 53.8783 72 56 72Z" fill="#C39167"/>
<path d="M56 120H128C130.122 120 132.157 119.157 133.657 117.657C135.157 116.157 136 114.122 136 112C136 109.878 135.157 107.843 133.657 106.343C132.157 104.843 130.122 104 128 104H56C53.8783 104 51.8434 104.843 50.3431 106.343C48.8429 107.843 48 109.878 48 112C48 114.122 48.8429 116.157 50.3431 117.657C51.8434 119.157 53.8783 120 56 120Z" fill="#C39167"/>
<path d="M56 168H128C130.122 168 132.157 167.157 133.657 165.657C135.157 164.157 136 162.122 136 160C136 157.878 135.157 155.843 133.657 154.343C132.157 152.843 130.122 152 128 152H56C53.8783 152 51.8434 152.843 50.3431 154.343C48.8429 155.843 48 157.878 48 160C48 162.122 48.8429 164.157 50.3431 165.657C51.8434 167.157 53.8783 168 56 168Z" fill="#C39167"/>
<path d="M264 200H56C53.8783 200 51.8434 200.843 50.3431 202.343C48.8429 203.843 48 205.878 48 208C48 210.122 48.8429 212.157 50.3431 213.657C51.8434 215.157 53.8783 216 56 216H264C266.122 216 268.157 215.157 269.657 213.657C271.157 212.157 272 210.122 272 208C272 205.878 271.157 203.843 269.657 202.343C268.157 200.843 266.122 200 264 200Z" fill="#C39167"/>
<path d="M264 248H56C53.8783 248 51.8434 248.843 50.3431 250.343C48.8429 251.843 48 253.878 48 256C48 258.122 48.8429 260.157 50.3431 261.657C51.8434 263.157 53.8783 264 56 264H264C266.122 264 268.157 263.157 269.657 261.657C271.157 260.157 272 258.122 272 256C272 253.878 271.157 251.843 269.657 250.343C268.157 248.843 266.122 248 264 248Z" fill="#C39167"/>
<path d="M264 296H56C53.8783 296 51.8434 296.843 50.3431 298.343C48.8429 299.843 48 301.878 48 304C48 306.122 48.8429 308.157 50.3431 309.657C51.8434 311.157 53.8783 312 56 312H264C266.122 312 268.157 311.157 269.657 309.657C271.157 308.157 272 306.122 272 304C272 301.878 271.157 299.843 269.657 298.343C268.157 296.843 266.122 296 264 296Z" fill="#C39167"/>
</svg>
