<svg width="512" height="512" viewBox="0 0 512 512" fill="none" xmlns="http://www.w3.org/2000/svg">
<path d="M169.072 451.488C195.594 475.89 228.229 492.654 263.512 500C247.76 479.896 234.896 448.352 226.584 409.4C204.866 419.568 185.333 433.863 169.072 451.488Z" fill="#F5F5F5" fill-opacity="0.6"/>
<path d="M296.2 104.408C294.08 104.488 291.968 104.624 289.864 104.776C270.48 116.896 252.04 152.776 241.44 205.168C259.031 211.56 277.5 215.213 296.2 216V104.408Z" fill="#F5F5F5" fill-opacity="0.6"/>
<path d="M296.2 376.408V312.2H232.28C232.528 337.364 234.616 362.477 238.528 387.336C257.104 380.856 276.54 377.173 296.2 376.408Z" fill="#F5F5F5" fill-opacity="0.6"/>
<path d="M312.2 504C314.328 503.912 316.44 503.784 318.544 503.632C337.928 491.512 356.368 455.632 366.968 403.24C349.374 396.848 330.903 393.195 312.2 392.408V504Z" fill="#F5F5F5" fill-opacity="0.6"/>
<path d="M289.864 503.632C291.968 503.784 294.08 503.912 296.2 504V392.408C277.5 393.195 259.031 396.849 241.44 403.24C252.04 455.624 270.48 491.512 289.864 503.632Z" fill="#F5F5F5" fill-opacity="0.6"/>
<path d="M226.584 198.976C234.896 160 247.76 128.48 263.512 108.376C228.242 115.739 195.622 132.511 169.112 156.912C185.361 174.526 204.881 188.813 226.584 198.976Z" fill="#F5F5F5" fill-opacity="0.6"/>
<path d="M381.824 409.432C373.512 448.384 360.64 479.928 344.888 500.032C380.177 492.678 412.815 475.903 439.336 451.488C423.069 433.878 403.537 419.595 381.824 409.432Z" fill="#F5F5F5" fill-opacity="0.6"/>
<path d="M296.2 296.2V232C276.541 231.232 257.105 227.549 238.528 221.072C234.617 245.929 232.528 271.039 232.28 296.2H296.2Z" fill="#F5F5F5" fill-opacity="0.6"/>
<path d="M216.28 296.2C216.565 269.03 218.972 241.923 223.48 215.128C198.611 204.103 176.244 188.137 157.736 168.2C125.201 203.102 106.275 248.523 104.4 296.2H216.28Z" fill="#F5F5F5" fill-opacity="0.6"/>
<path d="M223.488 393.28C218.98 366.482 216.573 339.373 216.288 312.2H104.408C106.283 359.878 125.209 405.298 157.744 440.2C176.254 420.269 198.622 404.306 223.488 393.28Z" fill="#F5F5F5" fill-opacity="0.6"/>
<path d="M392.128 312.2C391.843 339.373 389.436 366.482 384.928 393.28C409.793 404.308 432.16 420.27 450.672 440.2C483.207 405.298 502.133 359.878 504.008 312.2H392.128Z" fill="#F5F5F5" fill-opacity="0.6"/>
<path d="M312.2 312.2V376.408C331.862 377.173 351.301 380.856 369.88 387.336C373.791 362.477 375.88 337.364 376.128 312.2H312.2Z" fill="#F5F5F5" fill-opacity="0.6"/>
<path d="M384.92 215.128C389.428 241.923 391.835 269.03 392.12 296.2H504C502.125 248.523 483.199 203.102 450.664 168.2C432.154 188.135 409.787 204.1 384.92 215.128Z" fill="#F5F5F5" fill-opacity="0.6"/>
<path d="M439.336 156.912C412.813 132.503 380.175 115.73 344.888 108.376C360.64 128.48 373.512 160 381.824 198.976C403.539 188.813 423.072 174.527 439.336 156.912Z" fill="#F5F5F5" fill-opacity="0.6"/>
<path d="M312.2 232V296.2H376.128C375.879 271.039 373.791 245.929 369.88 221.072C351.3 227.549 331.861 231.232 312.2 232Z" fill="#F5F5F5" fill-opacity="0.6"/>
<path d="M318.544 104.8C316.44 104.648 314.328 104.512 312.2 104.432V216C330.903 215.214 349.374 211.561 366.968 205.168C356.368 152.8 337.928 116.896 318.544 104.8Z" fill="#F5F5F5" fill-opacity="0.6"/>
<path d="M407.272 148.592L348.64 24H360C362.122 24 364.156 23.1571 365.657 21.6569C367.157 20.1566 368 18.1217 368 16C368 13.8783 367.157 11.8434 365.657 10.3431C364.156 8.84285 362.122 8 360 8H56C53.8782 8 51.8434 8.84285 50.3431 10.3431C48.8428 11.8434 48 13.8783 48 16C48 18.1217 48.8428 20.1566 50.3431 21.6569C51.8434 23.1571 53.8782 24 56 24H67.424L8.79995 148.592C8.46395 149.896 7.85595 152.8 7.99995 152C7.99995 171.096 15.5856 189.409 29.0883 202.912C42.5909 216.414 60.9044 224 80 224C99.0955 224 117.409 216.414 130.912 202.912C144.414 189.409 152 171.096 152 152C151.816 151.144 151.432 149.392 151.2 148.592L92.64 24H164.72L188.72 48H184C181.878 48 179.843 48.8429 178.343 50.3431C176.843 51.8434 176 53.8783 176 56V312.72C164.828 314.618 154.686 320.404 147.366 329.056C140.047 337.707 136.021 348.668 136 360C136 362.122 136.843 364.157 138.343 365.657C139.843 367.157 141.878 368 144 368H272C274.122 368 276.156 367.157 277.657 365.657C279.157 364.157 280 362.122 280 360C279.979 348.668 275.953 337.707 268.634 329.056C261.314 320.404 251.172 314.618 240 312.72V56C240 53.8783 239.157 51.8434 237.657 50.3431C236.157 48.8429 234.122 48 232 48H227.312L251.312 24H323.392L264.8 148.592C264.624 149.392 263.88 152.808 264.04 152C264.04 171.096 271.626 189.409 285.128 202.912C298.631 216.414 316.944 224 336.04 224C355.136 224 373.449 216.414 386.952 202.912C400.454 189.409 408.04 171.096 408.04 152C407.848 151.144 407.464 149.392 407.272 148.592ZM80 208C66.5379 207.983 53.5308 203.125 43.3539 194.313C33.177 185.5 26.5092 173.321 24.568 160H135.464C133.52 173.326 126.847 185.508 116.664 194.321C106.481 203.134 93.4671 207.989 80 208ZM131.392 144H28.64L80 34.792L131.392 144ZM232 328C239.092 328.01 245.98 330.371 251.587 334.713C257.193 339.056 261.202 345.136 262.984 352H153.04C154.822 345.14 158.827 339.065 164.429 334.722C170.03 330.38 176.913 328.016 184 328H232ZM224 104V312H192V104H224ZM192 88V64H224V88H192ZM208 44.688L187.344 24H228.72L208 44.688ZM336 34.792L387.424 144H284.64L336 34.792ZM336 208C322.538 207.983 309.531 203.125 299.354 194.313C289.177 185.5 282.509 173.321 280.568 160H391.464C389.52 173.326 382.847 185.508 372.664 194.321C362.481 203.134 349.467 207.989 336 208Z" fill="#C39167"/>
</svg>
