<svg width="512" height="512" viewBox="0 0 512 512" fill="none" xmlns="http://www.w3.org/2000/svg">
<path d="M480 104H424C417.635 104 411.53 106.529 407.029 111.029C402.529 115.53 400 121.635 400 128V480C400 486.365 402.529 492.47 407.029 496.971C411.53 501.471 417.635 504 424 504H480C486.365 504 492.47 501.471 496.971 496.971C501.471 492.47 504 486.365 504 480V128C504 121.635 501.471 115.53 496.971 111.029C492.47 106.529 486.365 104 480 104ZM464 472H440C437.878 472 435.843 471.157 434.343 469.657C432.843 468.157 432 466.122 432 464C432 461.878 432.843 459.843 434.343 458.343C435.843 456.843 437.878 456 440 456H464C466.122 456 468.157 456.843 469.657 458.343C471.157 459.843 472 461.878 472 464C472 466.122 471.157 468.157 469.657 469.657C468.157 471.157 466.122 472 464 472ZM464 440H440C437.878 440 435.843 439.157 434.343 437.657C432.843 436.157 432 434.122 432 432C432 429.878 432.843 427.843 434.343 426.343C435.843 424.843 437.878 424 440 424H464C466.122 424 468.157 424.843 469.657 426.343C471.157 427.843 472 429.878 472 432C472 434.122 471.157 436.157 469.657 437.657C468.157 439.157 466.122 440 464 440ZM464 184H440C437.878 184 435.843 183.157 434.343 181.657C432.843 180.157 432 178.122 432 176C432 173.878 432.843 171.843 434.343 170.343C435.843 168.843 437.878 168 440 168H464C466.122 168 468.157 168.843 469.657 170.343C471.157 171.843 472 173.878 472 176C472 178.122 471.157 180.157 469.657 181.657C468.157 183.157 466.122 184 464 184ZM464 152H440C437.878 152 435.843 151.157 434.343 149.657C432.843 148.157 432 146.122 432 144C432 141.878 432.843 139.843 434.343 138.343C435.843 136.843 437.878 136 440 136H464C466.122 136 468.157 136.843 469.657 138.343C471.157 139.843 472 141.878 472 144C472 146.122 471.157 148.157 469.657 149.657C468.157 151.157 466.122 152 464 152Z" fill="#F5F5F5" fill-opacity="0.6"/>
<path d="M360 104H304C297.635 104 291.53 106.529 287.029 111.029C282.529 115.53 280 121.635 280 128V480C280 486.365 282.529 492.47 287.029 496.971C291.53 501.471 297.635 504 304 504H360C366.365 504 372.47 501.471 376.971 496.971C381.471 492.47 384 486.365 384 480V128C384 121.635 381.471 115.53 376.971 111.029C372.47 106.529 366.365 104 360 104ZM344 472H320C317.878 472 315.843 471.157 314.343 469.657C312.843 468.157 312 466.122 312 464C312 461.878 312.843 459.843 314.343 458.343C315.843 456.843 317.878 456 320 456H344C346.122 456 348.157 456.843 349.657 458.343C351.157 459.843 352 461.878 352 464C352 466.122 351.157 468.157 349.657 469.657C348.157 471.157 346.122 472 344 472ZM344 440H320C317.878 440 315.843 439.157 314.343 437.657C312.843 436.157 312 434.122 312 432C312 429.878 312.843 427.843 314.343 426.343C315.843 424.843 317.878 424 320 424H344C346.122 424 348.157 424.843 349.657 426.343C351.157 427.843 352 429.878 352 432C352 434.122 351.157 436.157 349.657 437.657C348.157 439.157 346.122 440 344 440ZM344 184H320C317.878 184 315.843 183.157 314.343 181.657C312.843 180.157 312 178.122 312 176C312 173.878 312.843 171.843 314.343 170.343C315.843 168.843 317.878 168 320 168H344C346.122 168 348.157 168.843 349.657 170.343C351.157 171.843 352 173.878 352 176C352 178.122 351.157 180.157 349.657 181.657C348.157 183.157 346.122 184 344 184ZM344 152H320C317.878 152 315.843 151.157 314.343 149.657C312.843 148.157 312 146.122 312 144C312 141.878 312.843 139.843 314.343 138.343C315.843 136.843 317.878 136 320 136H344C346.122 136 348.157 136.843 349.657 138.343C351.157 139.843 352 141.878 352 144C352 146.122 351.157 148.157 349.657 149.657C348.157 151.157 346.122 152 344 152Z" fill="#F5F5F5" fill-opacity="0.6"/>
<path d="M240 104H184C177.635 104 171.53 106.529 167.029 111.029C162.529 115.53 160 121.635 160 128V480C160 486.365 162.529 492.47 167.029 496.971C171.53 501.471 177.635 504 184 504H240C246.365 504 252.47 501.471 256.971 496.971C261.471 492.47 264 486.365 264 480V128C264 121.635 261.471 115.53 256.971 111.029C252.47 106.529 246.365 104 240 104ZM224 472H200C197.878 472 195.843 471.157 194.343 469.657C192.843 468.157 192 466.122 192 464C192 461.878 192.843 459.843 194.343 458.343C195.843 456.843 197.878 456 200 456H224C226.122 456 228.157 456.843 229.657 458.343C231.157 459.843 232 461.878 232 464C232 466.122 231.157 468.157 229.657 469.657C228.157 471.157 226.122 472 224 472ZM224 440H200C197.878 440 195.843 439.157 194.343 437.657C192.843 436.157 192 434.122 192 432C192 429.878 192.843 427.843 194.343 426.343C195.843 424.843 197.878 424 200 424H224C226.122 424 228.157 424.843 229.657 426.343C231.157 427.843 232 429.878 232 432C232 434.122 231.157 436.157 229.657 437.657C228.157 439.157 226.122 440 224 440ZM224 184H200C197.878 184 195.843 183.157 194.343 181.657C192.843 180.157 192 178.122 192 176C192 173.878 192.843 171.843 194.343 170.343C195.843 168.843 197.878 168 200 168H224C226.122 168 228.157 168.843 229.657 170.343C231.157 171.843 232 173.878 232 176C232 178.122 231.157 180.157 229.657 181.657C228.157 183.157 226.122 184 224 184ZM224 152H200C197.878 152 195.843 151.157 194.343 149.657C192.843 148.157 192 146.122 192 144C192 141.878 192.843 139.843 194.343 138.343C195.843 136.843 197.878 136 200 136H224C226.122 136 228.157 136.843 229.657 138.343C231.157 139.843 232 141.878 232 144C232 146.122 231.157 148.157 229.657 149.657C228.157 151.157 226.122 152 224 152Z" fill="#F5F5F5" fill-opacity="0.6"/>
<path d="M352 352H344V87.144C353.662 85.1132 362.231 79.5809 368.059 71.6117C373.887 63.6425 376.562 53.7995 375.569 43.9766C374.577 34.1537 369.986 25.0451 362.681 18.4034C355.376 11.7617 345.873 8.05622 336 8H48C38.1272 8.05622 28.624 11.7617 21.3191 18.4034C14.0141 25.0451 9.4235 34.1537 8.43058 43.9766C7.43767 53.7995 10.1126 63.6425 15.9407 71.6117C21.7688 79.5809 30.3382 85.1132 40 87.144V352H32C25.6348 352 19.5303 354.529 15.0294 359.029C10.5286 363.53 8 369.635 8 376V384C8 390.365 10.5286 396.47 15.0294 400.971C19.5303 405.471 25.6348 408 32 408H352C358.365 408 364.47 405.471 368.971 400.971C373.471 396.47 376 390.365 376 384V376C376 369.635 373.471 363.53 368.971 359.029C364.47 354.529 358.365 352 352 352ZM31.024 64.976C27.6653 61.6195 25.3778 57.3421 24.4509 52.6852C23.5239 48.0282 23.9992 43.2009 25.8166 38.8141C27.634 34.4274 30.7118 30.6783 34.6606 28.0413C38.6094 25.4043 43.2517 23.9978 48 24H336C339.946 24.0018 343.831 24.9765 347.31 26.8379C350.79 28.6993 353.756 31.3899 355.948 34.6715C358.139 37.9531 359.488 41.7244 359.874 45.6515C360.26 49.5786 359.672 53.5403 358.162 57.1859C356.651 60.8314 354.265 64.0484 351.215 66.5518C348.165 69.0552 344.544 70.7679 340.674 71.5382C336.804 72.3086 332.804 72.1128 329.027 70.9681C325.251 69.8235 321.815 67.7654 319.024 64.976C317.515 63.5187 315.494 62.7124 313.397 62.7306C311.299 62.7488 309.293 63.5902 307.809 65.0734C306.326 66.5567 305.485 68.5632 305.467 70.6608C305.448 72.7584 306.255 74.7792 307.712 76.288C313.256 81.8287 320.315 85.6059 328 87.144V352H56V87.144C63.6855 85.6059 70.7443 81.8287 76.288 76.288C77.7453 74.7792 78.5516 72.7584 78.5334 70.6608C78.5152 68.5632 77.6738 66.5567 76.1906 65.0734C74.7073 63.5902 72.7008 62.7488 70.6032 62.7306C68.5056 62.7124 66.4848 63.5187 64.976 64.976C60.4685 69.4685 54.364 71.991 48 71.991C41.636 71.991 35.5315 69.4685 31.024 64.976ZM360 384C360 386.122 359.157 388.157 357.657 389.657C356.157 391.157 354.122 392 352 392H32C29.8783 392 27.8434 391.157 26.3431 389.657C24.8429 388.157 24 386.122 24 384V376C24 373.878 24.8429 371.843 26.3431 370.343C27.8434 368.843 29.8783 368 32 368H352C354.122 368 356.157 368.843 357.657 370.343C359.157 371.843 360 373.878 360 376V384Z" fill="#C39167"/>
<path d="M192 336C194.122 336 196.157 335.157 197.657 333.657C199.157 332.157 200 330.122 200 328V72C200 69.8783 199.157 67.8434 197.657 66.3431C196.157 64.8429 194.122 64 192 64C189.878 64 187.843 64.8429 186.343 66.3431C184.843 67.8434 184 69.8783 184 72V328C184 330.122 184.843 332.157 186.343 333.657C187.843 335.157 189.878 336 192 336Z" fill="#C39167"/>
<path d="M256 336C258.122 336 260.157 335.157 261.657 333.657C263.157 332.157 264 330.122 264 328V72C264 69.8783 263.157 67.8434 261.657 66.3431C260.157 64.8429 258.122 64 256 64C253.878 64 251.843 64.8429 250.343 66.3431C248.843 67.8434 248 69.8783 248 72V328C248 330.122 248.843 332.157 250.343 333.657C251.843 335.157 253.878 336 256 336Z" fill="#C39167"/>
<path d="M128 336C125.878 336 123.843 335.157 122.343 333.657C120.843 332.157 120 330.122 120 328V72C120 69.8783 120.843 67.8434 122.343 66.3431C123.843 64.8429 125.878 64 128 64C130.122 64 132.157 64.8429 133.657 66.3431C135.157 67.8434 136 69.8783 136 72V328C136 330.122 135.157 332.157 133.657 333.657C132.157 335.157 130.122 336 128 336Z" fill="#C39167"/>
</svg>
